<svg width="25" height="23" viewBox="0 0 25 23" fill="none" xmlns="http://www.w3.org/2000/svg">
<path fill-rule="evenodd" clip-rule="evenodd" d="M2.12467 17.9683L5.04894 16.2741C5.59777 15.9561 6.15582 15.7307 6.75905 15.9264C7.4316 16.1445 8.52985 16.6129 9.64987 16.8148C10.0656 16.9496 10.3248 17.3659 10.2117 17.788C10.0985 18.2101 9.74186 18.4277 9.23854 18.3499L9.63004 18.4126C10.0787 18.4843 10.4907 18.4229 10.8834 18.1943L13.695 16.5567C15.8805 15.2838 16.2015 17.242 15.4748 17.6894L10.3726 20.8311C9.90328 21.12 9.38981 21.1874 8.85748 21.0447L5.15665 20.0531L3.7861 20.8444C3.52257 20.9965 3.18356 20.9057 3.03141 20.6422L1.92311 18.7226C1.77115 18.4593 1.86163 18.1207 2.12467 17.9683Z" fill="#F6DCCD"/>
<path fill-rule="evenodd" clip-rule="evenodd" d="M10.1449 17.9631C9.98861 18.2685 9.66663 18.4161 9.23846 18.3499C8.63226 18.1896 8.02674 18.0253 7.42103 17.863C7.25882 17.8195 7.16253 17.6527 7.20599 17.4905C7.24945 17.3282 7.41624 17.232 7.57845 17.2755L10.1449 17.9631Z" fill="#F1CBBC"/>
<path fill-rule="evenodd" clip-rule="evenodd" d="M2.12441 17.9683L5.04873 16.2741C5.59756 15.9561 6.15561 15.7307 6.75884 15.9264C7.11865 16.0431 7.60034 16.2314 8.14199 16.4122L2.47724 19.6828L1.9229 18.7226C1.7709 18.4593 1.86137 18.1207 2.12441 17.9683Z" fill="#F1CBBC"/>
<path fill-rule="evenodd" clip-rule="evenodd" d="M2.46412 17.1256L4.78331 21.2235C4.89547 21.4216 4.82506 21.6755 4.62691 21.7876L3.83804 22.2341C3.6399 22.3462 3.38604 22.2758 3.27393 22.0777L0.954743 17.9799C0.842634 17.7817 0.912947 17.5279 1.11114 17.4157L1.90001 16.9693C2.0981 16.8571 2.35196 16.9275 2.46412 17.1256Z" fill="#D1D1D6"/>
<path fill-rule="evenodd" clip-rule="evenodd" d="M3.68384 19.9411L4.09434 20.6664L4.50024 21.3836C4.61216 21.5813 4.54229 21.8346 4.34512 21.947L4.6269 21.7876C4.82505 21.6754 4.89541 21.4215 4.7833 21.2234L4.37598 20.5038L3.55815 19.0587L2.7394 17.6121L2.46406 17.1255C2.36694 16.9539 2.16343 16.8782 1.98193 16.9339L2.45864 17.7762L3.27646 19.2212L3.68374 19.9409L3.68384 19.9411Z" fill="#B1B1B5"/>
<path fill-rule="evenodd" clip-rule="evenodd" d="M5.60176 8.57672C4.94658 8.57672 4.29141 8.57672 3.63623 8.57672C3.50176 8.57672 3.39209 8.68639 3.39209 8.82086V14.3633H5.84585C5.84585 12.371 5.84585 10.7814 5.84585 8.82086C5.8459 8.68634 5.73623 8.57672 5.60176 8.57672Z" fill="#FE646F"/>
<path fill-rule="evenodd" clip-rule="evenodd" d="M5.60181 8.57672H5.11353C5.248 8.57672 5.35767 8.68639 5.35767 8.82086V14.3633H5.84595C5.84595 12.371 5.84595 10.7814 5.84595 8.82086C5.84595 8.68634 5.73628 8.57672 5.60181 8.57672Z" fill="#FD4755"/>
<path fill-rule="evenodd" clip-rule="evenodd" d="M9.67935 6.49933H7.71387C7.57939 6.49933 7.46973 6.609 7.46973 6.74347V14.3633H9.92349V6.74342C9.92349 6.609 9.81382 6.49933 9.67935 6.49933Z" fill="#6CF5C2"/>
<path fill-rule="evenodd" clip-rule="evenodd" d="M9.67944 6.49933H9.19116C9.32563 6.49933 9.4353 6.609 9.4353 6.74347V14.3633H9.92358V6.74342C9.92358 6.609 9.81392 6.49933 9.67944 6.49933Z" fill="#00E499"/>
<path fill-rule="evenodd" clip-rule="evenodd" d="M12.6464 1.0801L10.3418 3.6924C10.2492 3.79719 10.3265 3.95778 10.4694 3.95778H11.5428V9.66872C11.5428 11.2331 11.5472 12.7985 11.5472 14.3633H14.001C14.001 12.7985 14.0053 11.2332 14.0053 9.66872V3.95778H15.0787C15.2216 3.95778 15.2989 3.79724 15.2064 3.6924L12.9016 1.0801C12.8347 1.00436 12.7132 1.00441 12.6464 1.0801Z" fill="#8AC9FE"/>
<path fill-rule="evenodd" clip-rule="evenodd" d="M12.6463 1.0801L12.5298 1.21223L14.7179 3.6924C14.8104 3.79724 14.7332 3.95778 14.5903 3.95778H15.0786C15.2215 3.95778 15.2987 3.79724 15.2062 3.6924L12.9015 1.0801C12.8346 1.00436 12.7131 1.00441 12.6463 1.0801ZM13.5125 14.3633C13.5125 12.7985 13.5168 11.2331 13.5168 9.66867V3.95773H14.0051V9.66867C14.0051 11.2331 14.0008 12.7985 14.0008 14.3633H13.5125Z" fill="#60B7FF"/>
<path fill-rule="evenodd" clip-rule="evenodd" d="M23.2161 5.1015C21.6617 5.1015 20.3867 6.2973 20.2605 7.81918C20.4188 7.8453 20.5813 7.85912 20.7471 7.85912C22.3015 7.85912 23.5765 6.66332 23.7027 5.14144C23.5443 5.11532 23.3818 5.1015 23.2161 5.1015Z" fill="#6CF5C2"/>
<path fill-rule="evenodd" clip-rule="evenodd" d="M20.3395 7.34286C20.3007 7.49721 20.274 7.65629 20.2605 7.81918C20.4188 7.84531 20.5813 7.85912 20.7471 7.85912C22.3015 7.85912 23.5765 6.66332 23.7027 5.14145C23.6765 5.1371 23.6501 5.13315 23.6236 5.12949C23.3002 6.41728 22.1351 7.37084 20.747 7.37084C20.6087 7.37084 20.4728 7.36122 20.3395 7.34286Z" fill="#00E499"/>
<path fill-rule="evenodd" clip-rule="evenodd" d="M17.3049 5.1015C18.8594 5.1015 20.1344 6.2973 20.2605 7.81918C20.1022 7.8453 19.9397 7.85912 19.774 7.85912C18.2195 7.85912 16.9445 6.66332 16.8184 5.14144C16.9767 5.11532 17.1392 5.1015 17.3049 5.1015Z" fill="#6CF5C2"/>
<path fill-rule="evenodd" clip-rule="evenodd" d="M20.1815 7.34286C20.2203 7.49721 20.2471 7.65629 20.2605 7.81918C20.1022 7.84531 19.9397 7.85912 19.774 7.85912C18.2195 7.85912 16.9445 6.66332 16.8184 5.14145C16.8446 5.1371 16.8709 5.13315 16.8974 5.12949C17.2208 6.41728 18.3859 7.37084 19.774 7.37084C19.9123 7.37084 20.0483 7.36122 20.1815 7.34286Z" fill="#00E499"/>
<path fill-rule="evenodd" clip-rule="evenodd" d="M20.5636 0.962524C21.6227 2.14202 21.4721 3.83464 20.2606 4.85339C20.1305 4.7491 20.008 4.6342 19.895 4.50842C18.8358 3.32893 18.9865 1.63625 20.1979 0.617554C20.3281 0.721802 20.4506 0.836743 20.5636 0.962524Z" fill="#6CF5C2"/>
<path fill-rule="evenodd" clip-rule="evenodd" d="M21.2604 2.51448C21.3417 3.36536 20.9973 4.23396 20.2607 4.85339C20.1305 4.7491 20.008 4.6342 19.8951 4.50842C19.3567 3.90891 19.1311 3.17688 19.1983 2.46814C19.2507 3.01667 19.4799 3.55784 19.8951 4.02014C20.008 4.14592 20.1305 4.26082 20.2607 4.36511C20.8565 3.86414 21.1954 3.20022 21.2604 2.51448Z" fill="#00E499"/>
<path fill-rule="evenodd" clip-rule="evenodd" d="M17.9834 10.9774C17.5849 10.9774 17.2588 10.6513 17.2588 10.2529V9.72093C17.2588 9.32239 17.5849 8.99637 17.9834 8.99637H22.5376C22.9361 8.99637 23.2622 9.32239 23.2622 9.72093V10.2529C23.2622 10.6514 22.9361 10.9774 22.5376 10.9774C22.9361 10.9774 23.2622 11.3035 23.2622 11.702V12.234C23.2622 12.6325 22.9361 12.9585 22.5376 12.9585C22.9361 12.9585 23.2622 13.2846 23.2622 13.6831V14.2151C23.2622 14.6136 22.9361 14.9396 22.5376 14.9396C22.9361 14.9396 23.2622 15.2657 23.2622 15.6642V16.1962C23.2622 16.5947 22.9361 16.9207 22.5376 16.9207C22.9361 16.9207 23.2622 17.2468 23.2622 17.6453V18.1773C23.2622 18.5758 22.9361 18.9018 22.5376 18.9018H17.9834C17.5849 18.9018 17.2588 18.5758 17.2588 18.1773V17.6453C17.2588 17.2468 17.5849 16.9207 17.9834 16.9207C17.5849 16.9207 17.2588 16.5947 17.2588 16.1962V15.6642C17.2588 15.2657 17.5849 14.9396 17.9834 14.9396C17.5849 14.9396 17.2588 14.6136 17.2588 14.2151V13.6831C17.2588 13.2846 17.5849 12.9585 17.9834 12.9585C17.5849 12.9585 17.2588 12.6325 17.2588 12.234V11.702C17.2588 11.3035 17.5849 10.9774 17.9834 10.9774Z" fill="#FFE177"/>
<path fill-rule="evenodd" clip-rule="evenodd" d="M22.0493 8.99631H22.5376C22.9361 8.99631 23.2622 9.32233 23.2622 9.72087V10.2528C23.2622 10.6513 22.9361 10.9774 22.5376 10.9774C22.9361 10.9774 23.2622 11.3034 23.2622 11.7019V12.2339C23.2622 12.6324 22.9361 12.9585 22.5376 12.9585C22.9361 12.9585 23.2622 13.2845 23.2622 13.683V14.215C23.2622 14.6135 22.9361 14.9396 22.5376 14.9396C22.9361 14.9396 23.2622 15.2656 23.2622 15.6641V16.1961C23.2622 16.5946 22.9361 16.9207 22.5376 16.9207C22.9361 16.9207 23.2622 17.2467 23.2622 17.6452V18.1772C23.2622 18.5758 22.9361 18.9018 22.5376 18.9018H22.0493C22.4478 18.9018 22.7739 18.5757 22.7739 18.1772V17.6452C22.7739 17.2467 22.4478 16.9207 22.0493 16.9207C22.4478 16.9207 22.7739 16.5946 22.7739 16.1961V15.6641C22.7739 15.2656 22.4478 14.9396 22.0493 14.9396C22.4478 14.9396 22.7739 14.6135 22.7739 14.215V13.683C22.7739 13.2845 22.4478 12.9585 22.0493 12.9585C22.4478 12.9585 22.7739 12.6324 22.7739 12.2339V11.702C22.7739 11.3035 22.4478 10.9775 22.0493 10.9775C22.4478 10.9775 22.7739 10.6514 22.7739 10.2529V9.72097C22.7739 9.32238 22.4478 8.99631 22.0493 8.99631Z" fill="#FFD064"/>
<path fill-rule="evenodd" clip-rule="evenodd" d="M22.5376 10.9774H17.9834C17.5849 10.9774 17.2588 11.3035 17.2588 11.702V12.234C17.2588 12.6325 17.5849 12.9585 17.9834 12.9585H22.5376C22.9361 12.9585 23.2622 12.6325 23.2622 12.234V11.702C23.2622 11.3035 22.9362 10.9774 22.5376 10.9774Z" fill="#FFC338"/>
<path fill-rule="evenodd" clip-rule="evenodd" d="M22.5376 10.9774H22.0493C22.4478 10.9774 22.7739 11.3035 22.7739 11.702V12.234C22.7739 12.6325 22.4478 12.9585 22.0493 12.9585H22.5376C22.9361 12.9585 23.2622 12.6325 23.2622 12.234V11.702C23.2622 11.3035 22.9361 10.9774 22.5376 10.9774Z" fill="#F5B829"/>
<path fill-rule="evenodd" clip-rule="evenodd" d="M22.5376 14.9397H17.9834C17.5849 14.9397 17.2588 15.2657 17.2588 15.6642V16.1962C17.2588 16.5947 17.5849 16.9208 17.9834 16.9208H22.5376C22.9361 16.9208 23.2622 16.5947 23.2622 16.1962V15.6642C23.2622 15.2657 22.9362 14.9397 22.5376 14.9397Z" fill="#FFC338"/>
<path fill-rule="evenodd" clip-rule="evenodd" d="M22.5376 14.9397H22.0493C22.4478 14.9397 22.7739 15.2657 22.7739 15.6642V16.1962C22.7739 16.5947 22.4478 16.9208 22.0493 16.9208H22.5376C22.9361 16.9208 23.2622 16.5947 23.2622 16.1962V15.6642C23.2622 15.2657 22.9361 14.9397 22.5376 14.9397Z" fill="#F5B829"/>
<path d="M21.9074 22.2906C23.5204 21.9093 24.519 20.2925 24.1377 18.6795C23.7564 17.0665 22.1397 16.0679 20.5266 16.4492C18.9136 16.8305 17.9151 18.4472 18.2964 20.0603C18.6776 21.6733 20.2944 22.6718 21.9074 22.2906Z" fill="#FFC338"/>
<path fill-rule="evenodd" clip-rule="evenodd" d="M21.2172 16.3785C22.875 16.3785 24.2189 17.7224 24.2189 19.3802C24.2189 21.038 22.875 22.3819 21.2172 22.3819C21.1306 22.3819 21.0449 22.378 20.9602 22.3708C22.4977 22.2404 23.7049 20.9514 23.7049 19.3802C23.7049 17.8089 22.4977 16.5199 20.9602 16.3896C21.0449 16.3824 21.1306 16.3785 21.2172 16.3785Z" fill="#F5B829"/>
<path fill-rule="evenodd" clip-rule="evenodd" d="M3.78265 8.9675H5.45511V13.9727H3.78265V8.9675ZM7.86053 6.8903H9.53274V13.9727H7.86053V6.8903ZM11.9356 9.16032C11.9342 7.42649 11.933 5.69201 11.933 3.95769C11.933 3.74236 11.7584 3.56696 11.5426 3.56696H10.973L12.774 1.5261L14.5746 3.56696H14.0054C13.7896 3.56696 13.6147 3.74231 13.6147 3.95769C13.6147 5.69196 13.6133 7.42649 13.6124 9.16032C13.6112 10.7643 13.6103 12.3687 13.6103 13.9727H11.9376C11.9377 12.3687 11.9365 10.7643 11.9356 9.16032ZM16.0966 13.9727H14.3915C14.3915 12.3687 14.3927 10.7647 14.3936 9.16076C14.3945 7.55681 14.3954 5.9528 14.3959 4.34817H15.0787C15.2989 4.34817 15.4991 4.22038 15.5885 4.0216C15.6776 3.82282 15.6436 3.59778 15.4991 3.43415L13.1944 0.821896C13.0884 0.701681 12.9351 0.63298 12.774 0.63298C12.6129 0.63298 12.4596 0.701681 12.3536 0.821896L10.0489 3.43415C9.90389 3.59778 9.86966 3.82278 9.9595 4.0216C10.0489 4.22038 10.2491 4.34817 10.4693 4.34817H11.1518C11.1523 5.9528 11.1532 7.55681 11.1544 9.16076C11.1553 10.7647 11.1562 12.3687 11.1562 13.9727H10.3138V6.49958C10.3138 6.28376 10.1392 6.1091 9.92337 6.1091H7.46971C7.25389 6.1091 7.07898 6.28376 7.07898 6.49958V13.9727H6.23621V8.57678C6.23621 8.36096 6.06155 8.1863 5.84573 8.1863H3.39217C3.17635 8.1863 3.00145 8.36096 3.00145 8.57678V13.9727H2.18997C1.97415 13.9727 1.79925 14.1476 1.79925 14.3634C1.79925 14.5792 1.97415 14.7541 2.18997 14.7541H16.0967C16.3125 14.7541 16.4874 14.5792 16.4874 14.3634C16.4874 14.1476 16.3124 13.9727 16.0966 13.9727ZM22.5626 20.0358C22.5978 20.3244 22.5194 20.5885 22.3365 20.7999C22.1666 20.9962 21.9067 21.1383 21.6079 21.2047V21.2798C21.6079 21.4959 21.4332 21.6705 21.2172 21.6705C21.0013 21.6705 20.8267 21.4959 20.8267 21.2798V21.1978C20.3512 21.0778 19.9896 20.7418 19.875 20.2824C19.8228 20.073 19.9501 19.8609 20.1597 19.8087C20.3691 19.757 20.581 19.8839 20.6332 20.0935C20.7035 20.3766 21.0078 20.4709 21.2471 20.4644C21.4551 20.4596 21.66 20.3872 21.7455 20.2888C21.7733 20.2569 21.7972 20.2155 21.7871 20.13C21.7768 20.047 21.7533 19.8526 21.1567 19.7549C20.1558 19.5904 19.98 19.0192 19.9644 18.6931C19.9384 18.1677 20.2823 17.7246 20.8267 17.5699V17.4805C20.8267 17.2652 21.0013 17.09 21.2172 17.09C21.4332 17.09 21.6079 17.2652 21.6079 17.4805V17.5664C21.9584 17.662 22.2852 17.8981 22.461 18.3171C22.5444 18.5161 22.4512 18.7452 22.2519 18.8286C22.0533 18.9123 21.8242 18.8183 21.7408 18.6197C21.6022 18.2897 21.2579 18.2711 21.0761 18.3127C20.9952 18.3306 20.7325 18.4096 20.7447 18.6553C20.7477 18.7154 20.7564 18.8976 21.2832 18.984C22.063 19.1119 22.4936 19.4658 22.5626 20.0358ZM21.2172 21.9914C22.6569 21.9914 23.8283 20.8199 23.8283 19.3805C23.8283 17.9405 22.6569 16.7692 21.2172 16.7692C19.7773 16.7692 18.6059 17.9404 18.6059 19.3805C18.6059 20.8199 19.7773 21.9914 21.2172 21.9914ZM17.6493 18.1774V17.6456C17.6493 17.461 17.7994 17.3116 17.9835 17.3116H18.5312C18.2603 17.6628 18.0562 18.0676 17.9389 18.5079C17.776 18.4865 17.6493 18.3463 17.6493 18.1774ZM17.6493 15.6642C17.6493 15.4801 17.7994 15.3303 17.9835 15.3303H22.5376C22.7217 15.3303 22.8718 15.4801 22.8718 15.6642V16.1965C22.8718 16.2657 22.8492 16.3312 22.8106 16.3864C22.3351 16.1324 21.7929 15.9881 21.2172 15.9881C20.5406 15.9881 19.9107 16.1876 19.3809 16.5304H17.9835C17.7994 16.5304 17.6493 16.3803 17.6493 16.1965V15.6642ZM17.6493 13.6833C17.6493 13.4992 17.7994 13.3491 17.9835 13.3491H22.5376C22.7217 13.3491 22.8718 13.4992 22.8718 13.6833V14.2149C22.8718 14.3995 22.7217 14.5488 22.5376 14.5488H17.9835C17.7994 14.5488 17.6493 14.3995 17.6493 14.2149V13.6833ZM17.6493 11.7022C17.6493 11.5177 17.7994 11.3683 17.9835 11.3683H22.5376C22.7217 11.3683 22.8718 11.5176 22.8718 11.7022V12.2341C22.8718 12.4181 22.7217 12.568 22.5376 12.568H17.9835C17.7994 12.568 17.6493 12.4181 17.6493 12.2341V11.7022ZM17.6493 9.72087C17.6493 9.53679 17.7994 9.38694 17.9835 9.38694H22.5376C22.7217 9.38694 22.8718 9.53679 22.8718 9.72087V10.2531C22.8718 10.4372 22.7217 10.5871 22.5376 10.5871H17.9835C17.7994 10.5871 17.6493 10.4372 17.6493 10.2531V9.72087ZM17.2692 5.49226H17.3048C18.2623 5.49226 19.1147 6.03049 19.5576 6.82527L18.7773 6.25803C18.6027 6.13093 18.3583 6.16955 18.2315 6.34446C18.1044 6.51867 18.143 6.76272 18.3179 6.88982L18.901 7.3136C18.0991 7.02063 17.4726 6.33801 17.2692 5.49226ZM19.5826 2.55871C19.6187 2.03977 19.8368 1.54953 20.2046 1.15056C20.2276 1.17444 20.2505 1.1988 20.2726 1.22365H20.2728C20.7042 1.70422 20.9184 2.30383 20.8759 2.91218C20.8554 3.20178 20.7789 3.48215 20.6509 3.74279V2.73547C20.6509 2.51965 20.476 2.34499 20.2602 2.34499C20.0449 2.34499 19.8697 2.51965 19.8697 2.73547V3.80783C19.6528 3.42243 19.5519 2.99289 19.5826 2.55871ZM23.2521 5.49226C23.0485 6.33801 22.422 7.02063 21.6201 7.31364L22.2032 6.88986C22.3778 6.76277 22.4164 6.51867 22.2896 6.3445C22.1627 6.1696 21.9184 6.13098 21.7437 6.25808L20.9635 6.82531C21.4116 6.02063 22.2799 5.4801 23.2521 5.49226ZM23.4523 16.8318C24.1606 17.4537 24.6095 18.3654 24.6095 19.3805C24.6095 21.2507 23.088 22.7726 21.2172 22.7726C19.3466 22.7726 17.8247 21.2507 17.8247 19.3805C17.8247 19.3472 17.8261 19.3146 17.8272 19.2813C17.2862 19.2052 16.8681 18.7393 16.8681 18.1774V17.6456C16.8681 17.3693 16.9693 17.1158 17.1361 16.9209C16.9693 16.7258 16.8681 16.4728 16.8681 16.1965V15.6642C16.8681 15.3877 16.9693 15.1349 17.1361 14.9396C16.9693 14.7447 16.8681 14.4914 16.8681 14.2149V13.6833C16.8681 13.4068 16.9693 13.1533 17.1361 12.9587C16.9693 12.7638 16.8681 12.5103 16.8681 12.234V11.7022C16.8681 11.4259 16.9693 11.1724 17.1361 10.9778C16.9693 10.7824 16.8681 10.5294 16.8681 10.2531V9.72082C16.8681 9.10603 17.3687 8.60569 17.9835 8.60569H19.8697V8.24758C19.838 8.24851 19.8055 8.24968 19.7738 8.24968C18.9262 8.24968 18.1172 7.93322 17.4951 7.35793C16.8768 6.78567 16.4985 6.01023 16.4291 5.17385C16.4121 4.97068 16.5537 4.78913 16.7548 4.75603C16.9359 4.72614 17.1212 4.71096 17.3048 4.71096C18.1524 4.71096 18.9618 5.0279 19.5835 5.60315C19.686 5.69782 19.7807 5.79851 19.8697 5.90329V5.03317C19.7763 4.94978 19.6869 4.8615 19.6044 4.76955C19.0296 4.12995 18.7455 3.32531 18.8033 2.50393C18.8618 1.66506 19.2675 0.889181 19.9462 0.318478C20.0893 0.198751 20.2969 0.196457 20.4419 0.312521C20.5908 0.431564 20.7294 0.56257 20.854 0.701632C21.4282 1.34104 21.7129 2.14563 21.6552 2.96682C21.6005 3.74616 21.2456 4.47175 20.6509 5.02839V5.90334C20.7403 5.79856 20.8349 5.69787 20.9374 5.60319C21.5591 5.02795 22.3686 4.71101 23.2164 4.71101C23.3994 4.71101 23.5844 4.72619 23.7662 4.75608C23.9673 4.78918 24.1089 4.97072 24.0916 5.1739C24.0224 6.01023 23.6439 6.78567 23.0259 7.35798C22.4038 7.93322 21.5948 8.24973 20.747 8.24973C20.7152 8.24973 20.6831 8.24856 20.6509 8.24763V8.60573H22.5376C23.1524 8.60573 23.6529 9.10608 23.6529 9.72087V10.2531C23.6529 10.5294 23.5518 10.7824 23.3847 10.9778C23.5518 11.1725 23.6529 11.4259 23.6529 11.7022V12.2341C23.6529 12.5103 23.5518 12.7638 23.3847 12.9587C23.5518 13.1534 23.6529 13.4069 23.6529 13.6834V14.215C23.6529 14.4914 23.5518 14.7447 23.3847 14.9396C23.5518 15.135 23.6529 15.3878 23.6529 15.6643V16.1966C23.6529 16.4273 23.5796 16.6481 23.4523 16.8318ZM2.14881 17.922C2.17181 18.0783 2.06399 18.2231 1.90818 18.2459C1.75237 18.2686 1.60755 18.1608 1.5846 18.005C1.56209 17.8487 1.6701 17.7042 1.82571 17.6812C1.98152 17.6584 2.12654 17.7662 2.14881 17.922ZM15.3853 17.3806L10.2167 20.5626C9.8407 20.7945 9.42728 20.8522 8.98831 20.7345L5.23982 19.7301C5.13963 19.7032 5.03274 19.7175 4.94334 19.7692L4.49378 20.0284L3.22029 17.7784L5.22508 16.6178C5.83689 16.2634 6.2471 16.171 6.64129 16.299C6.81204 16.3542 7.01087 16.4259 7.24021 16.5093C7.90486 16.7493 8.72947 17.0476 9.59046 17.2062C9.81292 17.2887 9.93748 17.5027 9.88143 17.712C9.85892 17.7957 9.79065 18.0471 9.37698 18.0016C8.96536 17.9166 8.57142 17.8045 8.15496 17.6852C7.95408 17.6282 7.74725 17.5691 7.53328 17.5114C7.32483 17.4558 7.11087 17.5795 7.05477 17.788C6.99915 17.9964 7.12278 18.2106 7.33123 18.2665C7.53855 18.3221 7.74285 18.38 7.94002 18.4368C8.37737 18.5613 8.7906 18.6795 9.23787 18.7707C9.24041 18.7712 9.24314 18.7717 9.24568 18.7723C9.24822 18.7728 9.25096 18.7733 9.2535 18.7737L9.60789 18.8314C10.1705 18.9217 10.67 18.8332 11.1358 18.5622L13.9838 16.9035C14.7183 16.4754 15.2934 16.4069 15.4839 16.7252C15.6181 16.9489 15.5421 17.2838 15.3853 17.3806ZM4.36272 21.4416C4.37562 21.4342 4.38089 21.4152 4.37352 21.4026L2.02444 17.2516C2.02054 17.2452 2.01478 17.2408 2.00696 17.2383C2.00398 17.2374 2.00101 17.2374 1.99798 17.2374C1.99363 17.2374 1.98924 17.2383 1.98533 17.2404L1.18597 17.6929C1.17332 17.7003 1.16805 17.7189 1.17518 17.732L3.52449 21.8829C3.52815 21.8893 3.53416 21.8937 3.54197 21.8955C3.55022 21.8981 3.55716 21.8971 3.56356 21.8937L4.36272 21.4416ZM13.5904 16.2282L10.7428 17.8869C10.7042 17.9092 10.6656 17.9299 10.6265 17.9483C10.63 17.9372 10.6329 17.9255 10.6362 17.9142C10.8007 17.2999 10.4381 16.6594 9.81014 16.4557C9.79358 16.4502 9.77635 16.4459 9.75936 16.4428C8.95218 16.2976 8.15032 16.0073 7.50589 15.7745C7.27928 15.6925 7.06556 15.6154 6.88235 15.5557C6.10164 15.3022 5.40872 15.6086 4.83343 15.9416L2.83553 17.0983L2.70408 16.8669C2.59812 16.6789 2.42439 16.5435 2.21595 16.4856C2.00701 16.4279 1.7887 16.4543 1.60066 16.5605L0.801348 17.0128C0.412725 17.2329 0.275518 17.7282 0.495684 18.1169L2.84476 22.2676C2.95071 22.4551 3.12444 22.5909 3.33362 22.6486C3.40535 22.6686 3.47908 22.6782 3.55174 22.6782C3.68963 22.6782 3.82571 22.6431 3.94842 22.5732L4.74773 22.1212C4.93553 22.0148 5.07088 21.8412 5.12859 21.6323C5.1865 21.4238 5.1596 21.205 5.05345 21.0171L4.87855 20.7086L5.19388 20.5264L8.78631 21.4894C8.99959 21.5464 9.21194 21.5749 9.42112 21.5749C9.84378 21.5749 10.2524 21.4581 10.6266 21.228L15.795 18.0454C16.3268 17.7183 16.4983 16.8974 16.1544 16.3238C15.9888 16.0476 15.315 15.2238 13.5904 16.2282Z" fill="#242222"/>
</svg>
