<svg width="25" height="25" viewBox="0 0 25 25" fill="none" xmlns="http://www.w3.org/2000/svg">
<g clip-path="url(#clip0_6148_8383)">
<path d="M18.7574 2.74897C18.8047 2.76898 18.8554 2.77947 18.9067 2.77985C18.9581 2.78023 19.0089 2.77049 19.0565 2.75118C19.104 2.73187 19.1473 2.70337 19.1838 2.66731C19.2203 2.63126 19.2494 2.58836 19.2693 2.54107L19.862 1.13802C19.882 1.09076 19.8925 1.04001 19.8929 0.988685C19.8933 0.937357 19.8836 0.886455 19.8643 0.838886C19.845 0.791318 19.8166 0.748017 19.7805 0.711458C19.7445 0.6749 19.7016 0.645801 19.6543 0.625825C19.6071 0.60585 19.5563 0.595389 19.505 0.595041C19.4536 0.594693 19.4027 0.604464 19.3552 0.623797C19.3076 0.643129 19.2644 0.671644 19.2279 0.70771C19.1913 0.743776 19.1623 0.786687 19.1423 0.833989L18.5496 2.23703C18.5093 2.33248 18.5086 2.44002 18.5475 2.53602C18.5865 2.63202 18.662 2.70862 18.7574 2.74897Z" fill="#2D4356"/>
<path d="M5.13802 1.13802L5.73073 2.54107C5.75065 2.58837 5.77971 2.63128 5.81623 2.66735C5.85275 2.70341 5.89603 2.73193 5.94358 2.75126C5.99113 2.77059 6.04202 2.78036 6.09335 2.78001C6.14467 2.77967 6.19543 2.76921 6.24271 2.74923C6.29 2.72925 6.33288 2.70015 6.36891 2.6636C6.40494 2.62704 6.43341 2.58374 6.45269 2.53617C6.47198 2.4886 6.4817 2.4377 6.4813 2.38637C6.4809 2.33504 6.47039 2.2843 6.45037 2.23703L5.85766 0.833989C5.83773 0.786687 5.80867 0.743776 5.77215 0.70771C5.73563 0.671644 5.69236 0.643129 5.64481 0.623797C5.59726 0.604464 5.54636 0.594693 5.49504 0.595041C5.44371 0.595389 5.39295 0.60585 5.34567 0.625825C5.29839 0.645801 5.25551 0.6749 5.21948 0.711458C5.18345 0.748017 5.15497 0.791318 5.13569 0.838886C5.1164 0.886455 5.10668 0.937357 5.10708 0.988685C5.10748 1.04001 5.11799 1.09076 5.13802 1.13802Z" fill="#2D4356"/>
<path d="M3.94955 1.22175C3.85412 1.2621 3.77862 1.3387 3.73965 1.43469C3.70068 1.53069 3.70143 1.63824 3.74173 1.73368L4.48264 3.4873C4.62766 3.83138 4.89372 4.1104 5.23052 4.2716C5.58368 4.45528 5.8578 4.76137 6.00156 5.13258L6.14356 5.46866H6.99164L6.72121 4.82855C6.50341 4.28131 6.09312 3.83252 5.56755 3.56665C5.40298 3.48787 5.27302 3.35146 5.20229 3.18327L4.46139 1.42965C4.42098 1.3343 4.3444 1.25886 4.24845 1.21988C4.1525 1.18091 4.045 1.18158 3.94955 1.22175Z" fill="#2D4356"/>
<path d="M7.39794 4.53709L7.79147 5.46864H8.63956L8.11758 4.23306C7.95148 3.86982 7.92281 3.45865 8.0369 3.07587C8.15533 2.72155 8.14037 2.33619 7.99484 1.99212L7.25402 0.2385C7.23409 0.191197 7.20503 0.148287 7.16851 0.11222C7.13199 0.076154 7.08872 0.0476396 7.04117 0.0283071C6.99362 0.00897457 6.94272 -0.000796915 6.8914 -0.000448778C6.84007 -0.000100642 6.78931 0.0103603 6.74203 0.030336C6.69475 0.0503117 6.65187 0.0794105 6.61584 0.115969C6.57981 0.152527 6.55134 0.195828 6.53205 0.243397C6.51277 0.290965 6.50304 0.341868 6.50344 0.393195C6.50384 0.444523 6.51435 0.495268 6.53438 0.542531L7.2752 2.29615C7.34671 2.46508 7.35407 2.65432 7.2959 2.8283C7.12125 3.39138 7.15752 3.99879 7.39794 4.53709Z" fill="#2D4356"/>
<path d="M18.4656 0.542531C18.4856 0.495268 18.4961 0.444523 18.4965 0.393195C18.4969 0.341868 18.4872 0.290965 18.4679 0.243397C18.4487 0.195828 18.4202 0.152527 18.3842 0.115969C18.3481 0.0794105 18.3052 0.0503117 18.258 0.030336C18.2107 0.0103603 18.1599 -0.000100642 18.1086 -0.000448778C18.0573 -0.000796915 18.0064 0.00897457 17.9588 0.0283071C17.9113 0.0476396 17.868 0.076154 17.8315 0.11222C17.795 0.148287 17.7659 0.191197 17.746 0.2385L17.0052 1.99212C16.8596 2.33619 16.8447 2.72155 16.9631 3.07587C17.0772 3.45865 17.0485 3.86982 16.8824 4.23306L16.3604 5.46864H17.2085L17.6021 4.53709C17.8425 3.99879 17.8788 3.39139 17.7041 2.8283C17.6459 2.65432 17.6533 2.46509 17.7248 2.29615L18.4656 0.542531Z" fill="#2D4356"/>
<path d="M18.9984 5.13258C19.1422 4.76137 19.4163 4.45528 19.7695 4.2716C20.1063 4.1104 20.3723 3.83138 20.5174 3.4873L21.2583 1.73369C21.2783 1.68643 21.2888 1.63568 21.2892 1.58436C21.2896 1.53303 21.2799 1.48213 21.2606 1.43456C21.2413 1.38699 21.2128 1.34369 21.1768 1.30713C21.1408 1.27057 21.0979 1.24147 21.0506 1.2215C21.0033 1.20152 20.9526 1.19106 20.9012 1.19071C20.8499 1.19037 20.799 1.20014 20.7515 1.21947C20.7039 1.2388 20.6606 1.26732 20.6241 1.30338C20.5876 1.33945 20.5585 1.38236 20.5386 1.42966L19.7977 3.18328C19.727 3.35147 19.597 3.48788 19.4324 3.56666C18.9069 3.83253 18.4966 4.28132 18.2788 4.82856L18.0084 5.46865H18.8564L18.9984 5.13258Z" fill="#2D4356"/>
<path d="M19.9219 13.8671H12.5C12.1893 13.8673 11.8913 13.9909 11.6716 14.2106C11.4519 14.4303 11.3284 14.7282 11.3281 15.0389V19.1405C11.3284 19.4512 11.4519 19.7492 11.6716 19.9689C11.8913 20.1886 12.1893 20.3121 12.5 20.3124H19.9219C20.2326 20.3121 20.5305 20.1886 20.7502 19.9689C20.97 19.7492 21.0935 19.4512 21.0938 19.1405V15.0389C21.0935 14.7282 20.97 14.4303 20.7502 14.2106C20.5305 13.9909 20.2326 13.8673 19.9219 13.8671ZM20.3125 19.1405C20.3122 19.244 20.2709 19.3432 20.1978 19.4164C20.1246 19.4896 20.0254 19.5308 19.9219 19.5311H12.5C12.3965 19.5308 12.2973 19.4896 12.2241 19.4164C12.1509 19.3432 12.1097 19.244 12.1094 19.1405V15.0389C12.1097 14.9354 12.1509 14.8363 12.2241 14.7631C12.2973 14.6899 12.3965 14.6486 12.5 14.6483H19.9219C20.0254 14.6486 20.1246 14.6899 20.1978 14.7631C20.2709 14.8363 20.3122 14.9354 20.3125 15.0389V19.1405Z" fill="#2D4356"/>
<path d="M12.5 1.953C12.191 1.953 11.8889 2.04464 11.6319 2.21633C11.375 2.38802 11.1747 2.63205 11.0564 2.91756C10.9382 3.20307 10.9072 3.51724 10.9675 3.82033C11.0278 4.12343 11.1766 4.40184 11.3951 4.62036C11.6137 4.83888 11.8921 4.98769 12.1952 5.04798C12.4983 5.10827 12.8124 5.07733 13.0979 4.95906C13.3835 4.8408 13.6275 4.64053 13.7992 4.38358C13.9709 4.12663 14.0625 3.82454 14.0625 3.5155C14.062 3.10127 13.8972 2.70416 13.6042 2.41125C13.3113 2.11835 12.9142 1.95355 12.5 1.953ZM12.5 4.29675C12.3455 4.29675 12.1944 4.25093 12.066 4.16509C11.9375 4.07924 11.8373 3.95723 11.7782 3.81447C11.7191 3.67172 11.7036 3.51464 11.7338 3.36309C11.7639 3.21154 11.8383 3.07234 11.9476 2.96308C12.0568 2.85382 12.196 2.77941 12.3476 2.74926C12.4991 2.71912 12.6562 2.73459 12.799 2.79372C12.9417 2.85285 13.0637 2.95299 13.1496 3.08146C13.2354 3.20994 13.2812 3.36099 13.2812 3.5155C13.2813 3.61811 13.2611 3.71971 13.2218 3.81451C13.1826 3.90931 13.125 3.99544 13.0525 4.06799C12.9799 4.14054 12.8938 4.19809 12.799 4.23734C12.7042 4.27659 12.6026 4.29678 12.5 4.29675Z" fill="#2D4356"/>
<path d="M15.2344 18.2616C15.2341 18.3651 15.1928 18.4643 15.1196 18.5375C15.0464 18.6107 14.9473 18.6519 14.8438 18.6522H13.8672C13.6082 18.6521 13.3599 18.5492 13.1768 18.3661C12.9936 18.183 12.8907 17.9346 12.8906 17.6757V15.9178C12.8906 15.8142 12.9318 15.7149 13.005 15.6416C13.0783 15.5684 13.1776 15.5272 13.2812 15.5272C13.3849 15.5272 13.4842 15.5684 13.5575 15.6416C13.6307 15.7149 13.6719 15.8142 13.6719 15.9178V17.6757C13.672 17.7274 13.6927 17.777 13.7293 17.8136C13.7658 17.8502 13.8154 17.8708 13.8672 17.871H14.8438C14.9473 17.8713 15.0464 17.9125 15.1196 17.9857C15.1928 18.0589 15.2341 18.1581 15.2344 18.2616Z" fill="#2D4356"/>
<path d="M19.5312 15.9178V17.6757C19.5312 17.9346 19.4282 18.183 19.2451 18.3661C19.062 18.5492 18.8137 18.6521 18.5547 18.6522H17.5781C17.4745 18.6522 17.3752 18.6111 17.3019 18.5378C17.2287 18.4646 17.1875 18.3652 17.1875 18.2616C17.1875 18.158 17.2287 18.0586 17.3019 17.9854C17.3752 17.9121 17.4745 17.871 17.5781 17.871H18.5547C18.6064 17.8708 18.656 17.8502 18.6926 17.8136C18.7292 17.777 18.7498 17.7274 18.75 17.6757V15.9178C18.75 15.8142 18.7912 15.7149 18.8644 15.6416C18.9377 15.5684 19.037 15.5272 19.1406 15.5272C19.2442 15.5272 19.3436 15.5684 19.4168 15.6416C19.4901 15.7149 19.5312 15.8142 19.5312 15.9178Z" fill="#2D4356"/>
<path d="M17.1875 16.6991C17.1872 16.8026 17.1459 16.9018 17.0728 16.975C16.9996 17.0482 16.9004 17.0894 16.7969 17.0897H16.6016V18.2616C16.6016 18.3652 16.5604 18.4646 16.4872 18.5378C16.4139 18.6111 16.3145 18.6522 16.2109 18.6522C16.1073 18.6522 16.008 18.6111 15.9347 18.5378C15.8615 18.4646 15.8203 18.3652 15.8203 18.2616V17.0897H15.625C15.5214 17.0897 15.422 17.0486 15.3488 16.9753C15.2755 16.9021 15.2344 16.8027 15.2344 16.6991C15.2344 16.5955 15.2755 16.4961 15.3488 16.4229C15.422 16.3496 15.5214 16.3085 15.625 16.3085H16.7969C16.9004 16.3088 16.9996 16.35 17.0728 16.4232C17.1459 16.4964 17.1872 16.5956 17.1875 16.6991Z" fill="#2D4356"/>
<path d="M24.6094 11.5233V10.3515C24.713 10.3515 24.8123 10.3103 24.8856 10.237C24.9588 10.1638 25 10.0644 25 9.96083C25 9.85723 24.9588 9.75787 24.8856 9.68461C24.8123 9.61136 24.713 9.5702 24.6094 9.5702H24.2188V7.03114H24.6094C24.713 7.03114 24.8123 6.98999 24.8856 6.91673C24.9588 6.84347 25 6.74412 25 6.64052C25 6.53692 24.9588 6.43756 24.8856 6.3643C24.8123 6.29105 24.713 6.24989 24.6094 6.24989H14.7051C15.2717 5.79357 15.6828 5.17271 15.8817 4.4729C16.0806 3.7731 16.0575 3.02883 15.8156 2.34271C15.5736 1.65659 15.1248 1.06243 14.531 0.642143C13.9371 0.221858 13.2275 -0.00384521 12.5 -0.00384521C11.7725 -0.00384521 11.0629 0.221858 10.469 0.642143C9.8752 1.06243 9.42637 1.65659 9.18445 2.34271C8.94252 3.02883 8.91941 3.7731 9.11831 4.4729C9.3172 5.17271 9.7283 5.79357 10.2949 6.24989H0.390625C0.287025 6.24989 0.187668 6.29105 0.114411 6.3643C0.041155 6.43756 0 6.53692 0 6.64052C0 6.74412 0.041155 6.84347 0.114411 6.91673C0.187668 6.98999 0.287025 7.03114 0.390625 7.03114H0.78125V9.5702H0.390625C0.287025 9.5702 0.187668 9.61136 0.114411 9.68461C0.041155 9.75787 0 9.85723 0 9.96083C0 10.0644 0.041155 10.1638 0.114411 10.237C0.187668 10.3103 0.287025 10.3515 0.390625 10.3515V11.5233C0.391176 11.9376 0.555973 12.3347 0.848879 12.6276C1.14179 12.9205 1.53889 13.0853 1.95312 13.0858V21.0936H1.36719C1.26368 21.0939 1.1645 21.1352 1.09131 21.2084C1.01812 21.2816 0.976865 21.3808 0.976562 21.4843V22.6561H0.390625C0.287118 22.6564 0.187936 22.6977 0.114746 22.7709C0.0415546 22.8441 0.000302464 22.9433 0 23.0468L0 24.6093C0.000304514 24.7128 0.0415573 24.812 0.114748 24.8851C0.187938 24.9583 0.287118 24.9996 0.390625 24.9999H24.6094C24.7129 24.9996 24.8121 24.9583 24.8853 24.8851C24.9584 24.812 24.9997 24.7128 25 24.6093V23.0468C24.9997 22.9433 24.9584 22.8441 24.8853 22.7709C24.8121 22.6977 24.7129 22.6564 24.6094 22.6561H24.0234V21.4843C24.0231 21.3808 23.9819 21.2816 23.9087 21.2084C23.8355 21.1352 23.7363 21.0939 23.6328 21.0936H23.0469V13.0858C23.4611 13.0853 23.8582 12.9205 24.1511 12.6276C24.444 12.3347 24.6088 11.9376 24.6094 11.5233ZM9.76562 3.51552C9.76562 2.97471 9.92599 2.44604 10.2264 1.99638C10.5269 1.54671 10.954 1.19624 11.4536 0.989282C11.9532 0.782324 12.503 0.728174 13.0334 0.833681C13.5639 0.939187 14.0511 1.19961 14.4335 1.58202C14.8159 1.96443 15.0763 2.45165 15.1818 2.98207C15.2873 3.51248 15.2332 4.06227 15.0262 4.56192C14.8193 5.06156 14.4688 5.48861 14.0191 5.78907C13.5695 6.08952 13.0408 6.24989 12.5 6.24989C11.775 6.2491 11.08 5.96076 10.5674 5.44813C10.0548 4.93551 9.76642 4.24047 9.76562 3.51552ZM1.5625 7.03114H23.4375V9.5702H1.5625V7.03114ZM7.8125 13.8671H4.6875C4.37677 13.8673 4.07885 13.9909 3.85913 14.2106C3.63942 14.4303 3.51587 14.7282 3.51562 15.039V21.0936H2.73438V12.8749C2.88094 12.789 3.01281 12.6802 3.125 12.5526C3.2709 12.7201 3.45099 12.8543 3.65314 12.9463C3.85528 13.0382 4.07479 13.0858 4.29688 13.0858C4.51896 13.0858 4.73847 13.0382 4.94061 12.9463C5.14276 12.8543 5.32285 12.7201 5.46875 12.5526C5.61465 12.7201 5.79474 12.8543 5.99689 12.9463C6.19903 13.0382 6.41854 13.0858 6.64062 13.0858C6.86271 13.0858 7.08222 13.0382 7.28436 12.9463C7.48651 12.8543 7.6666 12.7201 7.8125 12.5526C7.9584 12.7201 8.13849 12.8543 8.34064 12.9463C8.54278 13.0382 8.76229 13.0858 8.98438 13.0858C9.20646 13.0858 9.42597 13.0382 9.62811 12.9463C9.83026 12.8543 10.0103 12.7201 10.1562 12.5526C10.3022 12.7201 10.4822 12.8543 10.6844 12.9463C10.8865 13.0382 11.106 13.0858 11.3281 13.0858C11.5502 13.0858 11.7697 13.0382 11.9719 12.9463C12.174 12.8543 12.3541 12.7201 12.5 12.5526C12.6459 12.7201 12.826 12.8543 13.0281 12.9463C13.2303 13.0382 13.4498 13.0858 13.6719 13.0858C13.894 13.0858 14.1135 13.0382 14.3156 12.9463C14.5178 12.8543 14.6978 12.7201 14.8438 12.5526C14.9897 12.7201 15.1697 12.8543 15.3719 12.9463C15.574 13.0382 15.7935 13.0858 16.0156 13.0858C16.2377 13.0858 16.4572 13.0382 16.6594 12.9463C16.8615 12.8543 17.0416 12.7201 17.1875 12.5526C17.3334 12.7201 17.5135 12.8543 17.7156 12.9463C17.9178 13.0382 18.1373 13.0858 18.3594 13.0858C18.5815 13.0858 18.801 13.0382 19.0031 12.9463C19.2053 12.8543 19.3853 12.7201 19.5312 12.5526C19.6772 12.7201 19.8572 12.8543 20.0594 12.9463C20.2615 13.0382 20.481 13.0858 20.7031 13.0858C20.9252 13.0858 21.1447 13.0382 21.3469 12.9463C21.549 12.8543 21.7291 12.7201 21.875 12.5526C21.9872 12.6802 22.1191 12.789 22.2656 12.8749V21.0936H8.98438V15.039C8.98413 14.7282 8.86059 14.4303 8.64087 14.2106C8.42115 13.9909 8.12323 13.8673 7.8125 13.8671ZM8.20312 15.039V21.0936H4.29688V15.039C4.29718 14.9354 4.33843 14.8363 4.41162 14.7631C4.48481 14.6899 4.58399 14.6486 4.6875 14.6483H7.8125C7.91601 14.6486 8.01519 14.6899 8.08838 14.7631C8.16157 14.8363 8.20282 14.9354 8.20312 15.039ZM3.51562 11.5233V10.3515H5.07812V11.5233C5.07812 11.7305 4.99581 11.9292 4.8493 12.0758C4.70279 12.2223 4.50408 12.3046 4.29688 12.3046C4.08967 12.3046 3.89096 12.2223 3.74445 12.0758C3.59794 11.9292 3.51562 11.7305 3.51562 11.5233ZM5.85938 11.5233V10.3515H7.42188V11.5233C7.42188 11.7305 7.33956 11.9292 7.19305 12.0758C7.04654 12.2223 6.84783 12.3046 6.64062 12.3046C6.43342 12.3046 6.23471 12.2223 6.0882 12.0758C5.94169 11.9292 5.85938 11.7305 5.85938 11.5233ZM8.20312 11.5233V10.3515H9.76562V11.5233C9.76562 11.7305 9.68332 11.9292 9.5368 12.0758C9.39029 12.2223 9.19158 12.3046 8.98438 12.3046C8.77717 12.3046 8.57846 12.2223 8.43195 12.0758C8.28543 11.9292 8.20312 11.7305 8.20312 11.5233ZM10.5469 11.5233V10.3515H12.1094V11.5233C12.1094 11.7305 12.0271 11.9292 11.8806 12.0758C11.734 12.2223 11.5353 12.3046 11.3281 12.3046C11.1209 12.3046 10.9222 12.2223 10.7757 12.0758C10.6292 11.9292 10.5469 11.7305 10.5469 11.5233ZM12.8906 11.5233V10.3515H14.4531V11.5233C14.4531 11.7305 14.3708 11.9292 14.2243 12.0758C14.0778 12.2223 13.8791 12.3046 13.6719 12.3046C13.4647 12.3046 13.266 12.2223 13.1194 12.0758C12.9729 11.9292 12.8906 11.7305 12.8906 11.5233ZM15.2344 11.5233V10.3515H16.7969V11.5233C16.7969 11.7305 16.7146 11.9292 16.5681 12.0758C16.4215 12.2223 16.2228 12.3046 16.0156 12.3046C15.8084 12.3046 15.6097 12.2223 15.4632 12.0758C15.3167 11.9292 15.2344 11.7305 15.2344 11.5233ZM17.5781 11.5233V10.3515H19.1406V11.5233C19.1406 11.7305 19.0583 11.9292 18.9118 12.0758C18.7653 12.2223 18.5666 12.3046 18.3594 12.3046C18.1522 12.3046 17.9535 12.2223 17.8069 12.0758C17.6604 11.9292 17.5781 11.7305 17.5781 11.5233ZM19.9219 11.5233V10.3515H21.4844V11.5233C21.4844 11.7305 21.4021 11.9292 21.2556 12.0758C21.109 12.2223 20.9103 12.3046 20.7031 12.3046C20.4959 12.3046 20.2972 12.2223 20.1507 12.0758C20.0042 11.9292 19.9219 11.7305 19.9219 11.5233ZM1.17188 11.5233V10.3515H2.73438V11.5233C2.73438 11.7305 2.65207 11.9292 2.50555 12.0758C2.35904 12.2223 2.16033 12.3046 1.95312 12.3046C1.74592 12.3046 1.54721 12.2223 1.4007 12.0758C1.25418 11.9292 1.17188 11.7305 1.17188 11.5233ZM24.2188 23.4374V24.2186H0.78125V23.4374H24.2188ZM23.2422 21.8749V22.6561H1.75781V21.8749H23.2422ZM22.2656 11.5233V10.3515H23.8281V11.5233C23.8281 11.7305 23.7458 11.9292 23.5993 12.0758C23.4528 12.2223 23.2541 12.3046 23.0469 12.3046C22.8397 12.3046 22.641 12.2223 22.4944 12.0758C22.3479 11.9292 22.2656 11.7305 22.2656 11.5233Z" fill="#2D4356"/>
<path d="M12.5 0.781128C11.9592 0.781128 11.4305 0.941496 10.9809 1.24195C10.5312 1.54241 10.1807 1.96946 9.97377 2.4691C9.76681 2.96874 9.71266 3.51854 9.81816 4.04895C9.92367 4.57937 10.1841 5.06659 10.5665 5.449C10.9489 5.83141 11.4361 6.09183 11.9665 6.19734C12.497 6.30284 13.0468 6.24869 13.5464 6.04174C14.046 5.83478 14.4731 5.48431 14.7735 5.03464C15.074 4.58497 15.2344 4.05631 15.2344 3.5155C15.2336 2.79055 14.9452 2.09551 14.4326 1.58289C13.92 1.07026 13.225 0.781923 12.5 0.781128ZM12.5 5.078C12.191 5.078 11.8889 4.98636 11.6319 4.81467C11.375 4.64298 11.1747 4.39896 11.0564 4.11345C10.9382 3.82794 10.9072 3.51377 10.9675 3.21067C11.0278 2.90758 11.1766 2.62917 11.3951 2.41065C11.6137 2.19213 11.8921 2.04332 12.1952 1.98303C12.4983 1.92274 12.8124 1.95368 13.0979 2.07194C13.3835 2.1902 13.6275 2.39047 13.7992 2.64742C13.9709 2.90438 14.0625 3.20647 14.0625 3.5155C14.0619 3.92973 13.8972 4.32684 13.6042 4.61975C13.3113 4.91266 12.9142 5.07745 12.5 5.078Z" fill="#FC785E"/>
<path d="M12.5 4.29675C12.9315 4.29675 13.2812 3.94698 13.2812 3.5155C13.2812 3.08403 12.9315 2.73425 12.5 2.73425C12.0685 2.73425 11.7188 3.08403 11.7188 3.5155C11.7188 3.94698 12.0685 4.29675 12.5 4.29675Z" fill="#E1EBF4"/>
<path d="M0.78125 23.4374H24.2188V24.2186H0.78125V23.4374Z" fill="#D68751"/>
<path d="M1.75781 21.8749H23.2422V22.6561H1.75781V21.8749Z" fill="#FFDB80"/>
<path d="M8.20312 15.0389V21.0936H4.29688V15.0389C4.29718 14.9354 4.33843 14.8363 4.41162 14.7631C4.48481 14.6899 4.58399 14.6486 4.6875 14.6483H7.8125C7.91601 14.6486 8.01519 14.6899 8.08838 14.7631C8.16157 14.8363 8.20282 14.9354 8.20312 15.0389Z" fill="#E1EBF4"/>
<path d="M21.875 12.5526C21.7291 12.72 21.549 12.8543 21.3469 12.9463C21.1447 13.0382 20.9252 13.0858 20.7031 13.0858C20.481 13.0858 20.2615 13.0382 20.0594 12.9463C19.8572 12.8543 19.6772 12.72 19.5312 12.5526C19.3853 12.72 19.2053 12.8543 19.0031 12.9463C18.801 13.0382 18.5815 13.0858 18.3594 13.0858C18.1373 13.0858 17.9178 13.0382 17.7156 12.9463C17.5135 12.8543 17.3334 12.72 17.1875 12.5526C17.0416 12.72 16.8615 12.8543 16.6594 12.9463C16.4572 13.0382 16.2377 13.0858 16.0156 13.0858C15.7935 13.0858 15.574 13.0382 15.3719 12.9463C15.1697 12.8543 14.9897 12.72 14.8438 12.5526C14.6978 12.72 14.5178 12.8543 14.3156 12.9463C14.1135 13.0382 13.894 13.0858 13.6719 13.0858C13.4498 13.0858 13.2303 13.0382 13.0281 12.9463C12.826 12.8543 12.6459 12.72 12.5 12.5526C12.3541 12.72 12.174 12.8543 11.9719 12.9463C11.7697 13.0382 11.5502 13.0858 11.3281 13.0858C11.106 13.0858 10.8865 13.0382 10.6844 12.9463C10.4822 12.8543 10.3022 12.72 10.1562 12.5526C10.0103 12.72 9.83026 12.8543 9.62811 12.9463C9.42597 13.0382 9.20646 13.0858 8.98438 13.0858C8.76229 13.0858 8.54278 13.0382 8.34064 12.9463C8.13849 12.8543 7.9584 12.72 7.8125 12.5526C7.6666 12.72 7.48651 12.8543 7.28436 12.9463C7.08222 13.0382 6.86271 13.0858 6.64062 13.0858C6.41854 13.0858 6.19903 13.0382 5.99689 12.9463C5.79474 12.8543 5.61465 12.72 5.46875 12.5526C5.32285 12.72 5.14276 12.8543 4.94061 12.9463C4.73847 13.0382 4.51896 13.0858 4.29688 13.0858C4.07479 13.0858 3.85528 13.0382 3.65314 12.9463C3.45099 12.8543 3.2709 12.72 3.125 12.5526C3.01281 12.6802 2.88094 12.789 2.73438 12.8749V21.0936H3.51562V15.0389C3.51587 14.7282 3.63942 14.4303 3.85913 14.2106C4.07885 13.9909 4.37678 13.8673 4.6875 13.8671H7.8125C8.12323 13.8673 8.42115 13.9909 8.64087 14.2106C8.86058 14.4303 8.98413 14.7282 8.98438 15.0389V21.0936H22.2656V12.8749C22.1191 12.789 21.9872 12.6802 21.875 12.5526ZM21.0938 19.1405C21.0935 19.4512 20.97 19.7492 20.7502 19.9689C20.5305 20.1886 20.2326 20.3121 19.9219 20.3124H12.5C12.1893 20.3121 11.8913 20.1886 11.6716 19.9689C11.4519 19.7492 11.3284 19.4512 11.3281 19.1405V15.0389C11.3284 14.7282 11.4519 14.4303 11.6716 14.2106C11.8913 13.9909 12.1893 13.8673 12.5 13.8671H19.9219C20.2326 13.8673 20.5305 13.9909 20.7502 14.2106C20.97 14.4303 21.0935 14.7282 21.0938 15.0389V19.1405Z" fill="#81D9E3"/>
<path d="M19.9219 14.6483H12.5C12.3965 14.6486 12.2973 14.6899 12.2241 14.7631C12.1509 14.8363 12.1097 14.9354 12.1094 15.0389V19.1405C12.1097 19.244 12.1509 19.3432 12.2241 19.4164C12.2973 19.4896 12.3965 19.5308 12.5 19.5311H19.9219C20.0254 19.5308 20.1246 19.4896 20.1978 19.4164C20.2709 19.3432 20.3122 19.244 20.3125 19.1405V15.0389C20.3122 14.9354 20.2709 14.8363 20.1978 14.7631C20.1246 14.6899 20.0254 14.6486 19.9219 14.6483ZM14.8438 18.6522H13.8672C13.6082 18.6521 13.3599 18.5492 13.1768 18.3661C12.9936 18.183 12.8907 17.9346 12.8906 17.6757V15.9178C12.8906 15.8142 12.9318 15.7149 13.005 15.6416C13.0783 15.5684 13.1776 15.5272 13.2812 15.5272C13.3849 15.5272 13.4842 15.5684 13.5575 15.6416C13.6307 15.7149 13.6719 15.8142 13.6719 15.9178V17.6757C13.672 17.7274 13.6927 17.777 13.7293 17.8136C13.7658 17.8502 13.8154 17.8708 13.8672 17.871H14.8438C14.9474 17.871 15.0467 17.9121 15.12 17.9854C15.1932 18.0586 15.2344 18.158 15.2344 18.2616C15.2344 18.3652 15.1932 18.4646 15.12 18.5378C15.0467 18.6111 14.9474 18.6522 14.8438 18.6522ZM16.7969 17.0897H16.6016V18.2616C16.6016 18.3652 16.5604 18.4646 16.4872 18.5378C16.4139 18.6111 16.3145 18.6522 16.2109 18.6522C16.1073 18.6522 16.008 18.6111 15.9347 18.5378C15.8615 18.4646 15.8203 18.3652 15.8203 18.2616V17.0897H15.625C15.5214 17.0897 15.422 17.0486 15.3488 16.9753C15.2755 16.9021 15.2344 16.8027 15.2344 16.6991C15.2344 16.5955 15.2755 16.4961 15.3488 16.4229C15.422 16.3496 15.5214 16.3085 15.625 16.3085H16.7969C16.9005 16.3085 16.9998 16.3496 17.0731 16.4229C17.1463 16.4961 17.1875 16.5955 17.1875 16.6991C17.1875 16.8027 17.1463 16.9021 17.0731 16.9753C16.9998 17.0486 16.9005 17.0897 16.7969 17.0897ZM19.5312 17.6757C19.5312 17.9346 19.4282 18.183 19.2451 18.3661C19.062 18.5492 18.8137 18.6521 18.5547 18.6522H17.5781C17.4745 18.6522 17.3752 18.6111 17.3019 18.5378C17.2287 18.4646 17.1875 18.3652 17.1875 18.2616C17.1875 18.158 17.2287 18.0586 17.3019 17.9854C17.3752 17.9121 17.4745 17.871 17.5781 17.871H18.5547C18.6064 17.8708 18.656 17.8502 18.6926 17.8136C18.7292 17.777 18.7498 17.7274 18.75 17.6757V15.9178C18.75 15.8142 18.7912 15.7149 18.8644 15.6416C18.9377 15.5684 19.037 15.5272 19.1406 15.5272C19.2442 15.5272 19.3436 15.5684 19.4168 15.6416C19.4901 15.7149 19.5312 15.8142 19.5312 15.9178V17.6757Z" fill="#E1EBF4"/>
<path d="M23.8281 10.3514V11.5233C23.8281 11.7305 23.7458 11.9292 23.5993 12.0757C23.4528 12.2223 23.2541 12.3046 23.0469 12.3046C22.8397 12.3046 22.641 12.2223 22.4944 12.0757C22.3479 11.9292 22.2656 11.7305 22.2656 11.5233V10.3514H23.8281Z" fill="#FFDB80"/>
<path d="M21.4844 10.3514V11.5233C21.4844 11.7305 21.4021 11.9292 21.2556 12.0757C21.109 12.2223 20.9103 12.3046 20.7031 12.3046C20.4959 12.3046 20.2972 12.2223 20.1507 12.0757C20.0042 11.9292 19.9219 11.7305 19.9219 11.5233V10.3514H21.4844Z" fill="#FC785E"/>
<path d="M19.1406 10.3514V11.5233C19.1406 11.7305 19.0583 11.9292 18.9118 12.0757C18.7653 12.2223 18.5666 12.3046 18.3594 12.3046C18.1522 12.3046 17.9535 12.2223 17.8069 12.0757C17.6604 11.9292 17.5781 11.7305 17.5781 11.5233V10.3514H19.1406Z" fill="#FFDB80"/>
<path d="M16.7969 10.3514V11.5233C16.7969 11.7305 16.7146 11.9292 16.5681 12.0757C16.4215 12.2223 16.2228 12.3046 16.0156 12.3046C15.8084 12.3046 15.6097 12.2223 15.4632 12.0757C15.3167 11.9292 15.2344 11.7305 15.2344 11.5233V10.3514H16.7969Z" fill="#FC785E"/>
<path d="M14.4531 10.3514V11.5233C14.4531 11.7305 14.3708 11.9292 14.2243 12.0757C14.0778 12.2223 13.8791 12.3046 13.6719 12.3046C13.4647 12.3046 13.266 12.2223 13.1194 12.0757C12.9729 11.9292 12.8906 11.7305 12.8906 11.5233V10.3514H14.4531Z" fill="#FFDB80"/>
<path d="M12.1094 10.3514V11.5233C12.1094 11.7305 12.0271 11.9292 11.8806 12.0757C11.734 12.2223 11.5353 12.3046 11.3281 12.3046C11.1209 12.3046 10.9222 12.2223 10.7757 12.0757C10.6292 11.9292 10.5469 11.7305 10.5469 11.5233V10.3514H12.1094Z" fill="#FC785E"/>
<path d="M9.76562 10.3514V11.5233C9.76562 11.7305 9.68331 11.9292 9.5368 12.0757C9.39029 12.2223 9.19158 12.3046 8.98438 12.3046C8.77717 12.3046 8.57846 12.2223 8.43195 12.0757C8.28544 11.9292 8.20312 11.7305 8.20312 11.5233V10.3514H9.76562Z" fill="#FFDB80"/>
<path d="M7.42188 10.3514V11.5233C7.42188 11.7305 7.33956 11.9292 7.19305 12.0757C7.04654 12.2223 6.84783 12.3046 6.64062 12.3046C6.43342 12.3046 6.23471 12.2223 6.0882 12.0757C5.94169 11.9292 5.85938 11.7305 5.85938 11.5233V10.3514H7.42188Z" fill="#FC785E"/>
<path d="M5.07812 10.3514V11.5233C5.07812 11.7305 4.99581 11.9292 4.8493 12.0757C4.70279 12.2223 4.50408 12.3046 4.29688 12.3046C4.08967 12.3046 3.89096 12.2223 3.74445 12.0757C3.59794 11.9292 3.51562 11.7305 3.51562 11.5233V10.3514H5.07812Z" fill="#FFDB80"/>
<path d="M2.73438 10.3514V11.5233C2.73438 11.7305 2.65207 11.9292 2.50555 12.0757C2.35904 12.2223 2.16033 12.3046 1.95312 12.3046C1.74592 12.3046 1.54721 12.2223 1.4007 12.0757C1.25418 11.9292 1.17188 11.7305 1.17188 11.5233V10.3514H2.73438Z" fill="#FC785E"/>
<path d="M1.5625 7.03113H23.4375V9.57019H1.5625V7.03113Z" fill="#E1EBF4"/>
<path opacity="0.3" d="M2.73438 20.703H3.51562V21.0936H2.73438V20.703Z" fill="#0F423C"/>
<path opacity="0.5" d="M4.29688 20.703H8.20312V21.0936H4.29688V20.703Z" fill="#9FA5AA"/>
<path opacity="0.3" d="M8.98438 20.703H22.2656V21.0936H8.98438V20.703Z" fill="#0F423C"/>
<path opacity="0.3" d="M15.2344 3.5155C15.2344 3.58191 15.2324 3.64636 15.2266 3.71082C15.1774 3.02127 14.8688 2.37597 14.3628 1.90485C13.8569 1.43374 13.1913 1.17181 12.5 1.17181C11.8087 1.17181 11.1431 1.43374 10.6372 1.90485C10.1312 2.37597 9.82262 3.02127 9.77344 3.71082C9.76758 3.64636 9.76562 3.58191 9.76562 3.5155C9.76562 2.7903 10.0537 2.0948 10.5665 1.58201C11.0793 1.06921 11.7748 0.781128 12.5 0.781128C13.2252 0.781128 13.9207 1.06921 14.4335 1.58201C14.9463 2.0948 15.2344 2.7903 15.2344 3.5155Z" fill="#F9DBD7"/>
<path opacity="0.5" d="M15.2344 3.5155C15.2344 4.2407 14.9463 4.9362 14.4335 5.449C13.9207 5.96179 13.2252 6.24988 12.5 6.24988C11.7748 6.24988 11.0793 5.96179 10.5665 5.449C10.0537 4.9362 9.76562 4.2407 9.76562 3.5155C9.76562 3.4491 9.76758 3.38464 9.77344 3.32019C9.82262 4.00974 10.1312 4.65504 10.6372 5.12615C11.1431 5.59726 11.8087 5.85919 12.5 5.85919C13.1913 5.85919 13.8569 5.59726 14.3628 5.12615C14.8688 4.65504 15.1774 4.00974 15.2266 3.32019C15.2324 3.38464 15.2344 3.4491 15.2344 3.5155Z" fill="#A54B3F"/>
<path opacity="0.5" d="M1.5625 7.03113H23.4375V7.42175H1.5625V7.03113Z" fill="white"/>
<path opacity="0.5" d="M1.5625 9.17957H23.4375V9.57019H1.5625V9.17957Z" fill="#9FA5AA"/>
<path opacity="0.45" d="M23.8281 11.1327V11.5233C23.8281 11.7305 23.7458 11.9292 23.5993 12.0757C23.4528 12.2223 23.2541 12.3046 23.0469 12.3046C22.8397 12.3046 22.641 12.2223 22.4944 12.0757C22.3479 11.9292 22.2656 11.7305 22.2656 11.5233V11.1327C22.2656 11.3399 22.3479 11.5386 22.4944 11.6851C22.641 11.8316 22.8397 11.9139 23.0469 11.9139C23.2541 11.9139 23.4528 11.8316 23.5993 11.6851C23.7458 11.5386 23.8281 11.3399 23.8281 11.1327Z" fill="#AD9359"/>
<path opacity="0.5" d="M21.4844 11.1327V11.5233C21.4844 11.7305 21.4021 11.9292 21.2556 12.0757C21.109 12.2223 20.9103 12.3046 20.7031 12.3046C20.4959 12.3046 20.2972 12.2223 20.1507 12.0757C20.0042 11.9292 19.9219 11.7305 19.9219 11.5233V11.1327C19.9219 11.3399 20.0042 11.5386 20.1507 11.6851C20.2972 11.8316 20.4959 11.9139 20.7031 11.9139C20.9103 11.9139 21.109 11.8316 21.2556 11.6851C21.4021 11.5386 21.4844 11.3399 21.4844 11.1327Z" fill="#A54B3F"/>
<path opacity="0.45" d="M19.1406 11.1327V11.5233C19.1406 11.7305 19.0583 11.9292 18.9118 12.0757C18.7653 12.2223 18.5666 12.3046 18.3594 12.3046C18.1522 12.3046 17.9535 12.2223 17.8069 12.0757C17.6604 11.9292 17.5781 11.7305 17.5781 11.5233V11.1327C17.5781 11.3399 17.6604 11.5386 17.8069 11.6851C17.9535 11.8316 18.1522 11.9139 18.3594 11.9139C18.5666 11.9139 18.7653 11.8316 18.9118 11.6851C19.0583 11.5386 19.1406 11.3399 19.1406 11.1327Z" fill="#AD9359"/>
<path opacity="0.5" d="M16.7969 11.1327V11.5233C16.7969 11.7305 16.7146 11.9292 16.5681 12.0757C16.4215 12.2223 16.2228 12.3046 16.0156 12.3046C15.8084 12.3046 15.6097 12.2223 15.4632 12.0757C15.3167 11.9292 15.2344 11.7305 15.2344 11.5233V11.1327C15.2344 11.3399 15.3167 11.5386 15.4632 11.6851C15.6097 11.8316 15.8084 11.9139 16.0156 11.9139C16.2228 11.9139 16.4215 11.8316 16.5681 11.6851C16.7146 11.5386 16.7969 11.3399 16.7969 11.1327Z" fill="#A54B3F"/>
<path opacity="0.45" d="M14.4531 11.1327V11.5233C14.4531 11.7305 14.3708 11.9292 14.2243 12.0757C14.0778 12.2223 13.8791 12.3046 13.6719 12.3046C13.4647 12.3046 13.266 12.2223 13.1194 12.0757C12.9729 11.9292 12.8906 11.7305 12.8906 11.5233V11.1327C12.8906 11.3399 12.9729 11.5386 13.1194 11.6851C13.266 11.8316 13.4647 11.9139 13.6719 11.9139C13.8791 11.9139 14.0778 11.8316 14.2243 11.6851C14.3708 11.5386 14.4531 11.3399 14.4531 11.1327Z" fill="#AD9359"/>
<path opacity="0.5" d="M12.1094 11.1327V11.5233C12.1094 11.7305 12.0271 11.9292 11.8806 12.0757C11.734 12.2223 11.5353 12.3046 11.3281 12.3046C11.1209 12.3046 10.9222 12.2223 10.7757 12.0757C10.6292 11.9292 10.5469 11.7305 10.5469 11.5233V11.1327C10.5469 11.3399 10.6292 11.5386 10.7757 11.6851C10.9222 11.8316 11.1209 11.9139 11.3281 11.9139C11.5353 11.9139 11.734 11.8316 11.8806 11.6851C12.0271 11.5386 12.1094 11.3399 12.1094 11.1327Z" fill="#A54B3F"/>
<path opacity="0.45" d="M9.76562 11.1327V11.5233C9.76562 11.7305 9.68331 11.9292 9.5368 12.0757C9.39029 12.2223 9.19158 12.3046 8.98438 12.3046C8.77717 12.3046 8.57846 12.2223 8.43195 12.0757C8.28544 11.9292 8.20312 11.7305 8.20312 11.5233V11.1327C8.20312 11.3399 8.28544 11.5386 8.43195 11.6851C8.57846 11.8316 8.77717 11.9139 8.98438 11.9139C9.19158 11.9139 9.39029 11.8316 9.5368 11.6851C9.68331 11.5386 9.76562 11.3399 9.76562 11.1327Z" fill="#AD9359"/>
<path opacity="0.5" d="M7.42188 11.1327V11.5233C7.42188 11.7305 7.33956 11.9292 7.19305 12.0757C7.04654 12.2223 6.84783 12.3046 6.64062 12.3046C6.43342 12.3046 6.23471 12.2223 6.0882 12.0757C5.94169 11.9292 5.85938 11.7305 5.85938 11.5233V11.1327C5.85938 11.3399 5.94169 11.5386 6.0882 11.6851C6.23471 11.8316 6.43342 11.9139 6.64062 11.9139C6.84783 11.9139 7.04654 11.8316 7.19305 11.6851C7.33956 11.5386 7.42188 11.3399 7.42188 11.1327Z" fill="#A54B3F"/>
<path opacity="0.45" d="M5.07812 11.1327V11.5233C5.07812 11.7305 4.99581 11.9292 4.8493 12.0757C4.70279 12.2223 4.50408 12.3046 4.29688 12.3046C4.08967 12.3046 3.89096 12.2223 3.74445 12.0757C3.59794 11.9292 3.51562 11.7305 3.51562 11.5233V11.1327C3.51562 11.3399 3.59794 11.5386 3.74445 11.6851C3.89096 11.8316 4.08967 11.9139 4.29688 11.9139C4.50408 11.9139 4.70279 11.8316 4.8493 11.6851C4.99581 11.5386 5.07812 11.3399 5.07812 11.1327Z" fill="#AD9359"/>
<path opacity="0.5" d="M2.73438 11.1327V11.5233C2.73438 11.7305 2.65207 11.9292 2.50555 12.0757C2.35904 12.2223 2.16033 12.3046 1.95312 12.3046C1.74592 12.3046 1.54721 12.2223 1.4007 12.0757C1.25418 11.9292 1.17188 11.7305 1.17188 11.5233V11.1327C1.17188 11.3399 1.25418 11.5386 1.4007 11.6851C1.54721 11.8316 1.74592 11.9139 1.95312 11.9139C2.16033 11.9139 2.35904 11.8316 2.50555 11.6851C2.65207 11.5386 2.73438 11.3399 2.73438 11.1327Z" fill="#A54B3F"/>
<path opacity="0.5" d="M8.20312 15.0389V15.4296C8.20282 15.3261 8.16157 15.2269 8.08838 15.1537C8.01519 15.0805 7.91601 15.0392 7.8125 15.0389H4.6875C4.58399 15.0392 4.48481 15.0805 4.41162 15.1537C4.33843 15.2269 4.29718 15.3261 4.29688 15.4296V15.0389C4.29718 14.9354 4.33843 14.8363 4.41162 14.7631C4.48481 14.6899 4.58399 14.6486 4.6875 14.6483H7.8125C7.91601 14.6486 8.01519 14.6899 8.08838 14.7631C8.16157 14.8363 8.20282 14.9354 8.20312 15.0389Z" fill="white"/>
<path opacity="0.45" d="M1.75781 22.2655H23.2422V22.6561H1.75781V22.2655Z" fill="#AD9359"/>
<path opacity="0.4" d="M0.78125 23.828H24.2188V24.2186H0.78125V23.828Z" fill="#72492D"/>
<path opacity="0.5" d="M20.3125 15.0389V15.4296C20.3122 15.3261 20.2709 15.2269 20.1978 15.1537C20.1246 15.0805 20.0254 15.0392 19.9219 15.0389H12.5C12.3965 15.0392 12.2973 15.0805 12.2241 15.1537C12.1509 15.2269 12.1097 15.3261 12.1094 15.4296V15.0389C12.1097 14.9354 12.1509 14.8363 12.2241 14.7631C12.2973 14.6899 12.3965 14.6486 12.5 14.6483H19.9219C20.0254 14.6486 20.1246 14.6899 20.1978 14.7631C20.2709 14.8363 20.3122 14.9354 20.3125 15.0389Z" fill="white"/>
<path opacity="0.5" d="M20.3125 18.7499V19.1405C20.3122 19.244 20.2709 19.3432 20.1978 19.4164C20.1246 19.4896 20.0254 19.5308 19.9219 19.5311H12.5C12.3965 19.5308 12.2973 19.4896 12.2241 19.4164C12.1509 19.3432 12.1097 19.244 12.1094 19.1405V18.7499C12.1097 18.8534 12.1509 18.9526 12.2241 19.0258C12.2973 19.0989 12.3965 19.1402 12.5 19.1405H19.9219C20.0254 19.1402 20.1246 19.0989 20.1978 19.0258C20.2709 18.9526 20.3122 18.8534 20.3125 18.7499Z" fill="#9FA5AA"/>
</g>
<defs>
<clipPath id="clip0_6148_8383">
<rect width="25" height="25" fill="white"/>
</clipPath>
</defs>
</svg>
