<svg width="21" height="23" viewBox="0 0 21 23" fill="none" xmlns="http://www.w3.org/2000/svg">
<path d="M12.0625 17.3593C11.8553 17.3593 11.6566 17.4416 11.5101 17.5881C11.3636 17.7346 11.2812 17.9333 11.2812 18.1405V18.9218H12.8438V18.1405C12.8438 17.9333 12.7614 17.7346 12.6149 17.5881C12.4684 17.4416 12.2697 17.3593 12.0625 17.3593Z" fill="#9BC9FF"/>
<path d="M20.2656 14.6249C20.2656 19.7928 16.2539 22.5858 11.1758 22.8124C11.1758 22.8124 10.2422 22.828 10.1172 22.8202C4.89844 22.6913 0.734375 19.8905 0.734375 14.6249C0.734375 14.4999 0.738281 14.371 0.75 14.2421L2.29688 15.0155L2.17969 14.5155C1.9477 13.5294 1.93125 12.5049 2.13148 11.5119C2.3317 10.5188 2.74387 9.58074 3.33984 8.7616C4.41797 7.28113 5.67969 5.71472 6.84766 4.33191L7.76562 5.24988V5.0116C7.76513 3.86758 8.18336 2.76295 8.94141 1.90613C9.875 0.847534 10.5 0.171753 10.5 0.171753C10.5 0.171753 12.7812 3.21472 14.5078 5.25769C15.4544 6.38131 15.972 7.80411 15.9688 9.27332V9.54675L17.1719 8.17175C19.0938 9.93738 20.2656 12.6014 20.2656 14.6249Z" fill="#ED1C24"/>
<path d="M9.92549 5.96707C9.55713 5.5155 9.32822 5.24988 9.32822 5.24988C9.32822 5.24988 8.45205 6.30925 7.3333 7.8448C6.60049 8.85027 5.8126 9.54675 6.20322 11.3085L6.26572 11.5264L7.76572 12.6718L7.3751 11.3085C6.98447 9.54675 7.77236 8.85027 8.50517 7.8448C9.06611 7.07449 9.56611 6.4241 9.92549 5.96707Z" fill="#D80027"/>
<path d="M9.92183 22.8124C6.61285 22.6561 4.70113 21.1178 3.85933 17.7499C3.50269 16.3229 4.48238 14.1827 5.74683 12.0249L4.94137 11.41C3.50777 13.7694 2.29683 16.1874 2.68746 17.7499C3.12886 19.5155 3.8648 20.7776 4.94058 21.6026C6.47875 22.3579 8.16228 22.771 9.87535 22.8135C9.89058 22.8132 9.9066 22.8132 9.92183 22.8124Z" fill="#D80027"/>
<path d="M9.91406 22.8155C10.1094 22.8229 10.3047 22.828 10.5 22.828C10.3141 22.828 10.1355 22.8214 9.95781 22.8135L9.91406 22.8155Z" fill="#D80027"/>
<path d="M13.336 5.25769C14.2826 6.38131 14.8002 7.80411 14.7969 9.27332V9.54675L15.8907 8.29871C15.7178 7.17727 15.2394 6.12511 14.5079 5.25769C12.7813 3.21472 10.5 0.171753 10.5 0.171753C10.5 0.171753 10.2614 0.430347 9.8606 0.874878C10.6372 1.8948 12.1219 3.82136 13.336 5.25769Z" fill="#D80027"/>
<path d="M17.1719 8.17175L16.6199 8.80457C18.1699 10.5315 19.0938 12.828 19.0938 14.6249C19.0938 17.8518 17.5285 20.1526 15.1168 21.4811C13.9855 22.4069 12.4434 22.828 10.5 22.828C15.8945 22.828 20.2656 20.0194 20.2656 14.6249C20.2656 12.6014 19.0938 9.93738 17.1719 8.17175Z" fill="#D80027"/>
<path d="M17.1406 17.7499C16.4218 21.3475 14.1679 22.828 10.5 22.828C6.83199 22.828 4.74996 21.3085 3.85933 17.7499C3.46871 16.1874 4.67965 13.7694 6.11324 11.41L7.76558 12.6718L7.37496 11.3085C6.98433 9.54675 7.7734 8.85144 8.50386 7.84363C9.62496 6.30847 10.5 5.24988 10.5 5.24988C11.8556 6.85365 13.1168 8.53487 14.2773 10.285C15.0557 11.4756 15.4018 12.8973 15.2578 14.3124L15.1875 15.0155L16.4726 14.246C17.0351 15.5663 17.332 16.7968 17.1406 17.7499Z" fill="#FF6243"/>
<path d="M12.7148 10.285C13.4931 11.4756 13.8393 12.8973 13.6953 14.3124L13.625 15.0155L14.9101 14.246C15.0148 14.4921 15.1054 14.7335 15.1917 14.9718L15.2578 14.3124C15.4018 12.8973 15.0556 11.4756 14.2773 10.285C13.1168 8.53487 11.8556 6.85365 10.5 5.24988C10.5 5.24988 10.2023 5.61042 9.73315 6.21316C10.4742 7.13347 11.6238 8.62253 12.7148 10.285Z" fill="#FF5023"/>
<path d="M16.4727 14.246L15.204 15.0057C15.5644 15.8726 15.6934 16.8182 15.5782 17.7499C14.9141 21.0819 12.9274 22.5936 9.72388 22.801C9.97505 22.8175 10.2317 22.828 10.5 22.828C14.168 22.828 16.4219 21.3475 17.1407 17.7499C17.3321 16.7968 17.0352 15.5663 16.4727 14.246Z" fill="#FF5023"/>
<path d="M8.9375 16.1874V13.8436C8.9375 13.74 8.89635 13.6407 8.82309 13.5674C8.74983 13.4942 8.65048 13.453 8.54688 13.453C8.44327 13.453 8.34392 13.4942 8.27066 13.5674C8.1974 13.6407 8.15625 13.74 8.15625 13.8436V14.6249H7.375V13.8436C7.375 13.74 7.33385 13.6407 7.26059 13.5674C7.18733 13.4942 7.08798 13.453 6.98438 13.453C6.88077 13.453 6.78142 13.4942 6.70816 13.5674C6.6349 13.6407 6.59375 13.74 6.59375 13.8436V16.1874C6.59375 16.291 6.6349 16.3903 6.70816 16.4636C6.78142 16.5368 6.88077 16.578 6.98438 16.578C7.08798 16.578 7.18733 16.5368 7.26059 16.4636C7.33385 16.3903 7.375 16.291 7.375 16.1874V15.4061H8.15625V16.1874C8.15625 16.291 8.1974 16.3903 8.27066 16.4636C8.34392 16.5368 8.44327 16.578 8.54688 16.578C8.65048 16.578 8.74983 16.5368 8.82309 16.4636C8.89635 16.3903 8.9375 16.291 8.9375 16.1874Z" fill="#FFCD00"/>
<path d="M10.5 16.578C10.8108 16.578 11.1089 16.4545 11.3286 16.2348C11.5484 16.015 11.6719 15.7169 11.6719 15.4061V14.6249C11.6719 14.3141 11.5484 14.016 11.3286 13.7962C11.1089 13.5765 10.8108 13.453 10.5 13.453C10.1892 13.453 9.89113 13.5765 9.67136 13.7962C9.45159 14.016 9.32813 14.3141 9.32812 14.6249V15.4061C9.32813 15.7169 9.45159 16.015 9.67136 16.2348C9.89113 16.4545 10.1892 16.578 10.5 16.578ZM10.1094 14.6249C10.1094 14.5213 10.1505 14.4219 10.2238 14.3487C10.297 14.2754 10.3964 14.2343 10.5 14.2343C10.6036 14.2343 10.703 14.2754 10.7762 14.3487C10.8495 14.4219 10.8906 14.5213 10.8906 14.6249V15.4061C10.8906 15.5097 10.8495 15.6091 10.7762 15.6823C10.703 15.7556 10.6036 15.7968 10.5 15.7968C10.3964 15.7968 10.297 15.7556 10.2238 15.6823C10.1505 15.6091 10.1094 15.5097 10.1094 15.4061V14.6249Z" fill="#FFCD00"/>
<path d="M6.59375 16.9686H6.20312C6.09952 16.9686 6.00017 17.0098 5.92691 17.083C5.85365 17.1563 5.8125 17.2557 5.8125 17.3593V19.703C5.8125 19.8066 5.85365 19.906 5.92691 19.9792C6.00017 20.0525 6.09952 20.0936 6.20312 20.0936H6.59375C7.00815 20.0936 7.40558 19.929 7.6986 19.636C7.99163 19.343 8.15625 18.9455 8.15625 18.5311C8.15625 18.1167 7.99163 17.7193 7.6986 17.4263C7.40558 17.1332 7.00815 16.9686 6.59375 16.9686ZM6.59375 19.3124V17.7499C6.80095 17.7499 6.99966 17.8322 7.14618 17.9787C7.29269 18.1252 7.375 18.3239 7.375 18.5311C7.375 18.7383 7.29269 18.937 7.14618 19.0836C6.99966 19.2301 6.80095 19.3124 6.59375 19.3124Z" fill="#FFCD00"/>
<path d="M10.1094 19.3124H9.32812V18.9218H10.1094C10.213 18.9218 10.3123 18.8806 10.3856 18.8073C10.4588 18.7341 10.5 18.6347 10.5 18.5311C10.5 18.4275 10.4588 18.3282 10.3856 18.2549C10.3123 18.1817 10.213 18.1405 10.1094 18.1405H9.32812V17.7499H10.1094C10.213 17.7499 10.3123 17.7087 10.3856 17.6355C10.4588 17.5622 10.5 17.4629 10.5 17.3593C10.5 17.2557 10.4588 17.1563 10.3856 17.083C10.3123 17.0098 10.213 16.9686 10.1094 16.9686H8.9375C8.8339 16.9686 8.73454 17.0098 8.66129 17.083C8.58803 17.1563 8.54688 17.2557 8.54688 17.3593V19.703C8.54688 19.8066 8.58803 19.906 8.66129 19.9792C8.73454 20.0525 8.8339 20.0936 8.9375 20.0936H10.1094C10.213 20.0936 10.3123 20.0525 10.3856 19.9792C10.4588 19.906 10.5 19.8066 10.5 19.703C10.5 19.5994 10.4588 19.5 10.3856 19.4268C10.3123 19.3535 10.213 19.3124 10.1094 19.3124Z" fill="#FFCD00"/>
<path d="M10.8906 18.1405V19.703C10.8906 19.8066 10.9318 19.906 11.005 19.9792C11.0783 20.0525 11.1776 20.0936 11.2812 20.0936C11.3849 20.0936 11.4842 20.0525 11.5575 19.9792C11.6307 19.906 11.6719 19.8066 11.6719 19.703V19.3124H12.4531V19.703C12.4531 19.8066 12.4943 19.906 12.5675 19.9792C12.6408 20.0525 12.7401 20.0936 12.8438 20.0936C12.9474 20.0936 13.0467 20.0525 13.12 19.9792C13.1932 19.906 13.2344 19.8066 13.2344 19.703V18.1405C13.2344 17.8297 13.1109 17.5316 12.8911 17.3119C12.6714 17.0921 12.3733 16.9686 12.0625 16.9686C11.7517 16.9686 11.4536 17.0921 11.2339 17.3119C11.0141 17.5316 10.8906 17.8297 10.8906 18.1405ZM12.0625 17.7499C12.1661 17.7499 12.2655 17.791 12.3387 17.8643C12.412 17.9375 12.4531 18.0369 12.4531 18.1405V18.5311H11.6719V18.1405C11.6719 18.0369 11.713 17.9375 11.7863 17.8643C11.8595 17.791 11.9589 17.7499 12.0625 17.7499Z" fill="#FFCD00"/>
<path d="M14.4062 17.3593C14.4062 17.2557 14.3651 17.1563 14.2918 17.083C14.2186 17.0098 14.1192 16.9686 14.0156 16.9686C13.912 16.9686 13.8127 17.0098 13.7394 17.083C13.6662 17.1563 13.625 17.2557 13.625 17.3593V19.703C13.625 19.8066 13.6662 19.906 13.7394 19.9792C13.8127 20.0525 13.912 20.0936 14.0156 20.0936H15.1875C15.2911 20.0936 15.3905 20.0525 15.4637 19.9792C15.537 19.906 15.5781 19.8066 15.5781 19.703C15.5781 19.5994 15.537 19.5 15.4637 19.4268C15.3905 19.3535 15.2911 19.3124 15.1875 19.3124H14.4062V17.3593Z" fill="#FFCD00"/>
<path d="M12.4531 14.2343H12.8438V16.1874C12.8438 16.291 12.8849 16.3903 12.9582 16.4636C13.0314 16.5368 13.1308 16.578 13.2344 16.578C13.338 16.578 13.4373 16.5368 13.5106 16.4636C13.5838 16.3903 13.625 16.291 13.625 16.1874V14.2343H14.0156C14.1192 14.2343 14.2186 14.1931 14.2918 14.1198C14.3651 14.0466 14.4062 13.9472 14.4062 13.8436C14.4062 13.74 14.3651 13.6407 14.2918 13.5674C14.2186 13.4942 14.1192 13.453 14.0156 13.453H12.4531C12.3495 13.453 12.2502 13.4942 12.1769 13.5674C12.1037 13.6407 12.0625 13.74 12.0625 13.8436C12.0625 13.9472 12.1037 14.0466 12.1769 14.1198C12.2502 14.1931 12.3495 14.2343 12.4531 14.2343Z" fill="#FFCD00"/>
</svg>
