<svg width="21" height="23" viewBox="0 0 21 23" fill="none" xmlns="http://www.w3.org/2000/svg">
<path d="M18.4386 4.88702C18.5927 4.23495 18.189 3.58138 17.537 3.42724C16.8849 3.2731 16.2313 3.67676 16.0772 4.32884C15.923 4.98091 16.3267 5.63448 16.9788 5.78862C17.6309 5.94275 18.2844 5.5391 18.4386 4.88702Z" fill="#F0B16E"/>
<path fill-rule="evenodd" clip-rule="evenodd" d="M14.0508 0.716187L15.4646 3.77944C15.9822 4.90079 16.1138 5.67064 17.4708 5.98134C17.9302 6.08654 18.4428 6.09859 18.9907 6.04854C19.2933 6.02089 19.547 6.26739 19.528 6.57064L19.4926 7.13744L15.9736 11.2913L14.6857 8.64299C14.6471 6.24219 14.0863 4.11764 13.4431 1.74104L14.0508 0.716187Z" fill="#19CFBA"/>
<path d="M4.80224 5.45969C5.27605 4.98588 5.27605 4.21768 4.80224 3.74387C4.32843 3.27006 3.56024 3.27006 3.08642 3.74387C2.61261 4.21768 2.61261 4.98588 3.08642 5.45969C3.56024 5.9335 4.32843 5.9335 4.80224 5.45969Z" fill="#F0B16E"/>
<path fill-rule="evenodd" clip-rule="evenodd" d="M7.14934 0.716187L5.73554 3.77944C5.21799 4.90079 5.08639 5.67064 3.72939 5.98134C3.26994 6.08654 2.75739 6.09859 2.20944 6.04854C1.90689 6.02089 1.65319 6.26739 1.67214 6.57064L1.70759 7.13744L5.22659 11.2913L6.51449 8.64299C6.55304 6.24219 7.11389 4.11764 7.75704 1.74104L7.14934 0.716187Z" fill="#19CFBA"/>
<path fill-rule="evenodd" clip-rule="evenodd" d="M14.0307 0.533492C14.1882 0.583992 14.296 0.660642 14.3637 0.819642C14.4218 0.956242 14.418 1.09669 14.3527 1.22999C13.585 2.79584 12.5289 4.74809 12.2261 6.30114C12.0275 7.32004 11.9579 8.48879 11.9516 9.73124H11.9261L10.6002 8.40344L9.2743 9.73124H9.2488C9.24255 8.48879 9.1729 7.32004 8.9743 6.30114C8.67155 4.74809 7.6154 2.79584 6.84775 1.22999C6.71455 0.958342 6.852 0.635442 7.14005 0.542992L7.1697 0.533492C7.39585 0.460942 7.63585 0.555692 7.7514 0.763192C8.25685 1.67064 8.83665 2.39774 9.4952 2.93344C10.1458 3.46264 11.0547 3.46264 11.7052 2.93344C12.3638 2.39774 12.9436 1.67064 13.449 0.763192C13.5646 0.555742 13.8045 0.460992 14.0307 0.533492Z" fill="#FA6E85"/>
<path fill-rule="evenodd" clip-rule="evenodd" d="M10.7845 7.93335L10.7577 7.9605C10.5794 8.1411 10.5492 8.4121 10.6834 8.62755C11.6294 10.1465 12.4108 11.0691 12.4019 13.0099C12.3943 14.6621 11.7087 17.135 11.298 18.9274C11.2443 19.162 11.387 19.397 11.6199 19.4575L11.692 19.4763C11.8906 19.5279 12.0922 19.4418 12.1923 19.2626L14.2241 15.6265L13.6876 19.1608C13.6441 19.4473 13.8518 19.7067 14.1409 19.727L14.2228 19.7328C14.4391 19.7479 14.6322 19.6278 14.7141 19.4271C15.6316 17.1799 16.3811 14.8879 17.0058 12.5627C17.0902 12.2482 17.2088 11.992 17.3937 11.724C18.3068 10.4006 19.1644 9.01745 19.968 7.5761C20.1061 7.32845 20.0309 7.01815 19.7948 6.86115L19.7543 6.8342C19.5085 6.67075 19.176 6.73475 19.0084 6.9777C18.5841 7.5929 18.1188 8.1709 17.6137 8.7126C16.9461 9.4286 16.233 10.1739 15.2134 10.3136C14.037 10.4748 13.6384 10.0161 12.9046 9.2823L11.5532 7.93085C11.3393 7.71715 10.997 7.71825 10.7845 7.93335Z" fill="#FFBF31"/>
<path d="M15.2432 10.2934C15.9134 10.2934 16.4567 9.75008 16.4567 9.07991C16.4567 8.40974 15.9134 7.86646 15.2432 7.86646C14.5731 7.86646 14.0298 8.40974 14.0298 9.07991C14.0298 9.75008 14.5731 10.2934 15.2432 10.2934Z" fill="#F0B16E"/>
<path fill-rule="evenodd" clip-rule="evenodd" d="M10.4155 7.93335L10.4423 7.9605C10.6206 8.1411 10.6508 8.4121 10.5167 8.62755C9.57067 10.1465 8.78922 11.0691 8.79812 13.0099C8.80572 14.6621 9.49132 17.135 9.90207 18.9274C9.95577 19.162 9.81302 19.397 9.58017 19.4575L9.50807 19.4763C9.30942 19.5279 9.10782 19.4418 9.00772 19.2626L6.97597 15.6265L7.51242 19.1608C7.55592 19.4473 7.34822 19.7067 7.05912 19.727L6.97722 19.7328C6.76097 19.7479 6.56787 19.6278 6.48592 19.4271C5.56837 17.1799 4.81892 14.8879 4.19427 12.5627C4.10982 12.2482 3.99127 11.992 3.80637 11.724C2.89322 10.4006 2.03562 9.01745 1.23202 7.5761C1.09397 7.32845 1.16912 7.01815 1.40522 6.86115L1.44572 6.8342C1.69152 6.67075 2.02407 6.73475 2.19167 6.9777C2.61597 7.5929 3.08127 8.1709 3.58637 8.7126C4.25392 9.4286 4.96707 10.1739 5.98667 10.3136C7.16307 10.4748 7.56162 10.0161 8.29542 9.2823L9.64687 7.93085C9.86072 7.71715 10.2031 7.71825 10.4155 7.93335Z" fill="#60B7FE"/>
<path d="M7.08172 9.54689C7.33839 8.92766 7.04448 8.21759 6.42524 7.96091C5.80601 7.70424 5.09594 7.99815 4.83926 8.61739C4.58259 9.23663 4.8765 9.94669 5.49574 10.2034C6.11498 10.46 6.82504 10.1661 7.08172 9.54689Z" fill="#F0B16E"/>
<path d="M10.6002 3.3304C11.2703 3.3304 11.8136 2.78712 11.8136 2.11695C11.8136 1.44678 11.2703 0.903503 10.6002 0.903503C9.93 0.903503 9.38672 1.44678 9.38672 2.11695C9.38672 2.78712 9.93 3.3304 10.6002 3.3304Z" fill="#F0B16E"/>
<path fill-rule="evenodd" clip-rule="evenodd" d="M3.16142 13.8003C3.29832 13.9296 3.30472 14.1453 3.17567 14.2833L2.86897 14.6081C2.74117 14.7443 2.52227 14.751 2.38742 14.6225C2.25042 14.4931 2.24412 14.2775 2.37302 14.1424L2.67982 13.8147C2.80892 13.6796 3.02452 13.6709 3.16142 13.8003ZM1.66737 16.0226C1.49497 15.9478 1.41637 15.7466 1.49172 15.5741L1.65052 15.2118C1.72587 15.0393 1.92677 14.9617 2.09907 15.0364C2.27147 15.1112 2.35007 15.3124 2.27472 15.4849L2.11592 15.8472C2.03842 16.0251 1.83132 16.097 1.66737 16.0226ZM1.57932 17.4744C1.39112 17.4744 1.23862 17.3221 1.23862 17.1323V16.7557C1.23862 16.5689 1.39112 16.4165 1.57932 16.4165C1.76742 16.4165 1.91992 16.5688 1.91992 16.7557V17.1323C1.91992 17.3221 1.76742 17.4744 1.57932 17.4744ZM2.09907 18.8515C1.93512 18.9259 1.72797 18.854 1.65052 18.6762L1.49172 18.3139C1.41637 18.1414 1.49497 17.9402 1.66737 17.8654C1.83962 17.7907 2.04057 17.8683 2.11592 18.0408L2.27472 18.403C2.35002 18.5755 2.27147 18.7768 2.09907 18.8515ZM3.17567 19.6076C3.37787 19.8194 3.22962 20.1797 2.92782 20.1797C2.83732 20.1797 2.74692 20.1452 2.67987 20.0734L2.37307 19.7485C2.24417 19.6105 2.25042 19.3949 2.38747 19.2655C2.52437 19.139 2.73997 19.1448 2.86902 19.2799L3.17567 19.6076ZM4.69937 21.1198C4.60132 21.2822 4.39352 21.332 4.23107 21.2319L3.79712 20.9674C3.63677 20.8697 3.58632 20.6598 3.68462 20.4988C3.78297 20.3378 3.99277 20.289 4.15312 20.3867L4.58697 20.6512C4.74737 20.749 4.79777 20.9588 4.69937 21.1198ZM6.62637 21.8846C6.56312 22.065 6.36462 22.155 6.19167 22.0916L5.66037 21.9047C5.48292 21.8415 5.39007 21.6489 5.45282 21.4706C5.51547 21.2924 5.71022 21.2004 5.88752 21.2636L6.41882 21.4505C6.59627 21.5137 6.68912 21.7092 6.62637 21.8846ZM8.82352 22.3273C8.79202 22.5188 8.60867 22.6372 8.43227 22.609L7.83957 22.5113C7.65397 22.4797 7.52817 22.3043 7.55857 22.1203C7.58912 21.9334 7.76432 21.8098 7.94992 21.8385L8.54257 21.9363C8.72822 21.9679 8.85397 22.1433 8.82352 22.3273ZM11.1473 22.402C11.1511 22.5918 11.0017 22.747 10.8137 22.7499H10.1861C9.99797 22.747 9.84857 22.5918 9.85252 22.402C9.85647 22.2152 10.0123 22.0657 10.2001 22.0685C10.4046 22.0743 10.5952 22.0743 10.7997 22.0685C10.9878 22.0657 11.1434 22.2152 11.1473 22.402ZM13.4411 22.1203C13.4717 22.3043 13.3459 22.4796 13.1603 22.5113C13.0478 22.5301 12.5927 22.6119 12.5121 22.6119C12.3481 22.6119 12.2037 22.494 12.1763 22.3273C12.1457 22.1433 12.2715 21.9679 12.4573 21.9363L13.0499 21.8386C13.2356 21.8098 13.4107 21.9334 13.4411 22.1203ZM15.547 21.4706C15.6098 21.6488 15.5169 21.8414 15.3395 21.9047L14.8082 22.0915C14.6349 22.1551 14.4375 22.065 14.3735 21.8845C14.3107 21.7091 14.4036 21.5137 14.5811 21.4504L15.1124 21.2636C15.2896 21.2003 15.4844 21.2923 15.547 21.4706ZM17.3152 20.4988C17.4135 20.6598 17.3631 20.8697 17.2027 20.9674L16.7689 21.2319C16.6066 21.3318 16.3994 21.2827 16.3005 21.1198C16.2022 20.9588 16.2525 20.749 16.4129 20.6512L16.8468 20.3867C17.0072 20.289 17.2168 20.3378 17.3152 20.4988ZM18.6124 19.2655C18.7493 19.3949 18.7557 19.6105 18.6267 19.7485L18.3199 20.0734C18.1919 20.2098 17.9729 20.216 17.8384 20.0877C17.7015 19.9584 17.6951 19.7427 17.8241 19.6076L18.1309 19.2799C18.26 19.1448 18.4755 19.139 18.6124 19.2655ZM19.5081 18.3139L19.3493 18.6762C19.2726 18.8522 19.0692 18.9262 18.9007 18.8515C18.7284 18.7768 18.6498 18.5755 18.7251 18.403L18.8839 18.0408C18.9593 17.8683 19.1602 17.7907 19.3324 17.8654C19.5048 17.9402 19.5835 18.1414 19.5081 18.3139ZM19.7612 16.7557V17.1323C19.7612 17.3221 19.6087 17.4744 19.4206 17.4744C19.2324 17.4744 19.0799 17.3221 19.0799 17.1323V16.7557C19.0799 16.5689 19.2324 16.4165 19.4206 16.4165C19.6088 16.4165 19.7612 16.5688 19.7612 16.7557ZM18.7252 15.485C18.6498 15.3125 18.7284 15.1112 18.9007 15.0365C19.0731 14.9617 19.274 15.0393 19.3494 15.2119L19.5082 15.5741C19.6074 15.8009 19.4361 16.0514 19.1962 16.0514C19.0649 16.0514 18.9399 15.9766 18.884 15.8473L18.7252 15.485ZM18.6268 14.1424C18.8288 14.3541 18.6806 14.7145 18.3789 14.7145C18.2883 14.7145 18.1979 14.68 18.131 14.6081L17.8242 14.2833C17.6951 14.1453 17.7016 13.9297 17.8384 13.8003C17.9753 13.6709 18.1909 13.6795 18.32 13.8147L18.6268 14.1424ZM19.3893 7.35189C19.5095 7.14029 19.1645 6.92619 19.0261 7.12479C18.6044 7.73714 18.1338 8.32364 17.6271 8.86699C17.1283 9.40174 16.5331 10.0399 15.7423 10.359C15.585 10.4395 15.4122 10.4942 15.2296 10.5143C14.9893 10.5538 14.8301 10.5775 14.5921 10.5775C13.6579 10.5775 13.2044 10.1204 12.6075 9.52244L11.1937 8.10799C11.0276 7.94014 10.7534 8.18014 10.8708 8.36959C11.7805 9.83719 12.6169 10.8162 12.6076 12.8487C12.6001 14.4876 11.9446 16.8811 11.5163 18.7279C11.5049 18.7767 11.536 18.8285 11.5856 18.84C11.6454 18.8554 11.7194 18.8939 11.7641 18.8141L13.7565 15.2463C13.9387 14.9218 14.4476 15.0885 14.3907 15.4648L13.8646 18.932C13.8519 19.0157 13.9126 19.0885 13.9962 19.0959C14.0839 19.1035 14.1761 19.1172 14.2191 19.0125C15.0772 16.911 15.8079 14.7232 16.4529 12.3197C16.5459 11.9747 16.6781 11.6872 16.8819 11.394C17.7627 10.1175 18.6063 8.75769 19.3893 7.35189ZM10.129 8.36959C10.2469 8.18064 9.97237 7.93999 9.80617 8.10799L8.39242 9.52244C7.61847 10.2978 7.14367 10.7399 5.77017 10.5143C5.58757 10.4942 5.41487 10.4395 5.25751 10.359C4.46667 10.0399 3.87152 9.40169 3.37277 8.86699C2.86607 8.32364 2.39537 7.73714 1.97367 7.12479C1.83322 6.92419 1.49192 7.14099 1.61052 7.35189C2.39337 8.75774 3.23697 10.1175 4.11797 11.394C4.32167 11.6873 4.45397 11.9748 4.54697 12.3198C5.19192 14.7232 5.92257 16.911 6.78072 19.0126C6.82362 19.1173 6.91567 19.1036 7.00352 19.0959C7.08727 19.0886 7.14797 19.0157 7.13527 18.932L6.60917 15.4649C6.55252 15.0903 7.06132 14.9207 7.24332 15.2464L9.23577 18.8141C9.25846 18.8544 9.29867 18.8716 9.34347 18.8601C9.40337 18.8439 9.50617 18.8256 9.48337 18.7279C9.05437 16.8864 8.39972 14.4768 8.39227 12.8487C8.38292 10.8049 9.22382 9.83824 10.129 8.36959ZM2.24032 6.36004C2.85517 6.41754 3.37772 6.39164 3.83792 6.28814C5.35467 5.94424 5.53677 5.02084 6.03857 3.93934L6.86387 2.15114C6.94967 2.32074 7.03682 2.49614 7.12417 2.67439C6.65172 4.46259 6.32842 5.93454 6.20497 7.48699C6.12087 7.46974 6.03447 7.46399 5.94632 7.46399C5.11211 7.46399 4.43227 8.13384 4.41642 8.96469C3.76142 8.33484 3.03927 7.47244 2.53447 6.73949C2.42777 6.58424 2.27832 6.47499 2.11247 6.41749C2.12912 6.38909 2.18002 6.35404 2.24032 6.36004ZM3.97392 3.75249C3.50562 3.75249 3.12457 4.13484 3.12457 4.60349C3.12457 5.27099 3.87212 5.68694 4.44827 5.30784C4.44877 5.30079 4.82336 5.08144 4.82336 4.60349C4.82336 4.13484 4.44232 3.75249 3.97392 3.75249ZM6.86737 7.77159C6.95667 6.41174 7.20752 5.12379 7.58307 3.62309C8.41607 5.40469 8.67507 6.29329 8.78872 8.16259L7.90987 9.04229C7.70652 9.24639 7.53762 9.41314 7.37297 9.54829C7.62322 8.90324 7.41032 8.18094 6.86737 7.77159ZM5.53967 9.73804C5.27607 9.59429 5.09697 9.31544 5.09697 8.99344C5.09697 8.52484 5.47812 8.14534 5.94641 8.14534C6.41471 8.14534 6.79577 8.52484 6.79577 8.99344C6.79577 9.46204 6.41471 9.84444 5.94641 9.84444C5.82811 9.84444 5.64627 9.78114 5.53967 9.73804ZM7.12187 1.02704C7.16026 0.93344 7.34027 0.87954 7.40857 1.00404C7.92787 1.93549 8.53112 2.68584 9.20137 3.22924C9.96592 3.85309 11.034 3.85309 11.7986 3.22924C12.4689 2.68589 13.0721 1.93554 13.5913 1.00404C13.6795 0.84429 13.9599 0.97234 13.8741 1.14489C13.0945 2.71349 12.058 4.67794 11.7602 6.20474C11.6804 6.61299 11.6191 7.05284 11.5745 7.54159C11.2513 7.29839 10.81 7.31629 10.5 7.57319C10.1901 7.31674 9.75007 7.29829 9.42527 7.54159C9.38077 7.05284 9.31947 6.61299 9.23977 6.20474C8.93451 4.63964 7.90567 2.73529 7.12577 1.14489C7.10017 1.09319 7.11232 1.04719 7.12187 1.02704ZM10.5 1.31744C10.0316 1.31744 9.65052 1.69694 9.65052 2.16554C9.65052 2.60539 9.98497 2.96764 10.4123 3.01074C10.9346 3.04994 11.3493 2.66574 11.3493 2.16554C11.3493 1.69694 10.9683 1.31744 10.5 1.31744ZM13.4167 3.62314C13.7923 5.12384 14.0432 6.41179 14.1326 7.77164C13.5893 8.18094 13.3768 8.90314 13.6268 9.54834C13.4623 9.41324 13.2934 9.24649 13.09 9.04234L12.211 8.16264C12.325 6.29254 12.5834 5.40569 13.4167 3.62314ZM15.1289 9.83869C14.6473 9.89419 14.2041 9.49634 14.2041 8.99349C14.2041 8.52489 14.5852 8.14539 15.0535 8.14539C15.5219 8.14539 15.9028 8.52489 15.9028 8.99349C15.9028 9.31549 15.7238 9.59434 15.4604 9.73809C15.3535 9.78119 15.2431 9.81569 15.1289 9.83869ZM15.1546 4.37634C15.4021 4.94894 15.657 5.52529 16.1774 5.87414C16.8901 6.35204 17.8017 6.45254 18.7595 6.35999C18.8198 6.35419 18.8705 6.38889 18.8873 6.41749C18.7214 6.47499 18.572 6.58424 18.4653 6.73949C17.9604 7.47249 17.2384 8.33479 16.5833 8.96469C16.5675 8.13384 15.8875 7.46399 15.0534 7.46399C14.9653 7.46399 14.8789 7.46974 14.7948 7.48699C14.6713 5.93454 14.348 4.46544 13.8756 2.67439C13.963 2.49614 14.0502 2.32079 14.1359 2.15114L14.9612 3.93934C15.0312 4.08884 15.094 4.23549 15.1546 4.37634ZM17.0259 3.75249C16.5575 3.75249 16.1765 4.13484 16.1765 4.60349C16.1765 4.86014 16.3043 5.11834 16.4909 5.26184C17.0948 5.72634 17.8753 5.27699 17.8753 4.60349C17.8753 4.13484 17.4942 3.75249 17.0259 3.75249ZM19.7057 6.53539L19.5962 6.46639C19.5761 5.99729 19.1664 5.63759 18.6975 5.68154C18.4784 5.70164 18.2746 5.71029 18.083 5.70739C18.3745 5.42854 18.5565 5.03754 18.5565 4.60344C18.5565 3.75824 17.8699 3.07109 17.0259 3.07109C16.4451 3.07109 15.9388 3.39594 15.6795 3.87319L14.5218 1.36054C14.5928 1.16504 14.5871 0.95519 14.5042 0.75969C14.2432 0.14704 13.3423 0.04979 12.9961 0.67344C12.6992 1.20529 12.3748 1.67104 12.0269 2.06489C11.975 1.26854 11.3102 0.63604 10.5 0.63604C9.68957 0.63604 9.02477 1.26849 8.97287 2.06489C8.62497 1.67104 8.30067 1.20529 8.00372 0.67344C7.65052 0.0397899 6.75002 0.15709 6.49482 0.75969C6.41327 0.95234 6.40822 1.16504 6.47812 1.36054L5.32017 3.87319C5.06087 3.39594 4.55472 3.07109 3.97392 3.07109C3.12997 3.07109 2.44337 3.75819 2.44337 4.60344C2.44337 5.03754 2.62542 5.42854 2.91687 5.70739C2.72527 5.71029 2.52147 5.70164 2.30237 5.68154C1.83332 5.63759 1.42407 5.99729 1.40372 6.46639L1.29422 6.53539C0.917765 6.78549 0.795365 7.28864 1.01547 7.68534C1.80887 9.10839 2.66402 10.4855 3.55727 11.7792C3.71687 12.012 3.81612 12.2248 3.88902 12.4979C4.54147 14.9272 5.28107 17.1409 6.14997 19.2712C6.28382 19.5982 6.63352 19.817 6.97112 19.7801L7.05132 19.7743C7.53822 19.7416 7.88077 19.302 7.80877 18.8285L7.56452 17.2185L8.64107 19.1447C8.81622 19.4581 9.16726 19.6105 9.51477 19.5185L9.58552 19.5012C9.99517 19.3949 10.2422 18.9866 10.1476 18.5755C9.73462 16.772 9.08072 14.4179 9.07352 12.8458C9.06581 11.1599 9.70142 10.3231 10.5 9.05954C11.2973 10.3242 11.9342 11.1562 11.9264 12.8458C11.9191 14.4193 11.2653 16.7712 10.8523 18.5755C10.7579 18.9866 11.0047 19.3948 11.4144 19.5012L11.4851 19.5185C11.8327 19.6105 12.1838 19.4581 12.3588 19.1447L13.4353 17.2185L13.1911 18.8285C13.1191 19.302 13.4618 19.7417 13.9484 19.7743L14.0872 19.783C14.4205 19.783 14.7223 19.5817 14.8498 19.2712C15.7187 17.1409 16.4583 14.9272 17.1108 12.4979C17.1837 12.2248 17.283 12.0121 17.4426 11.7792C18.3357 10.4855 19.1909 9.10839 19.9844 7.68534C20.2045 7.28864 20.0821 6.78554 19.7057 6.53539Z" fill="#1E2F3F"/>
</svg>
