<svg width="25" height="25" viewBox="0 0 25 25" fill="none" xmlns="http://www.w3.org/2000/svg">
<g clip-path="url(#clip0_6148_8439)">
<path d="M0.488281 20.996V22.9491C0.488281 23.812 1.1879 24.5116 2.05078 24.5116H22.9492C23.8121 24.5116 24.5117 23.812 24.5117 22.9491V20.996H0.488281Z" fill="#E1E3E9"/>
<path d="M0.488281 8.8866V20.996C0.488281 21.8589 1.1879 22.5585 2.05078 22.5585H22.9492C23.8121 22.5585 24.5117 21.8589 24.5117 20.996V8.8866" fill="white"/>
<path d="M23.0469 3.02722H1.95312C1.14403 3.02722 0.488281 3.68316 0.488281 4.49207V8.8866H24.5117V4.49207C24.5117 3.68316 23.856 3.02722 23.0469 3.02722Z" fill="#F5737F"/>
<path d="M4.19674 5.37097C3.6047 5.37097 3.125 4.89127 3.125 4.29923V1.5599C3.125 0.967857 3.6047 0.488159 4.19674 0.488159C4.78859 0.488159 5.26829 0.967857 5.26829 1.5599V4.29923C5.26829 4.89127 4.78859 5.37097 4.19674 5.37097Z" fill="#E1E3E9"/>
<path d="M20.8033 5.37097C20.2114 5.37097 19.7317 4.89127 19.7317 4.29923V1.5599C19.7317 0.967857 20.2114 0.488159 20.8033 0.488159C21.3951 0.488159 21.875 0.967857 21.875 1.5599V4.29923C21.875 4.89127 21.3951 5.37097 20.8033 5.37097Z" fill="#E1E3E9"/>
<path d="M12.5063 5.37097C11.9143 5.37097 11.4346 4.89127 11.4346 4.29923V1.5599C11.4346 0.967857 11.9143 0.488159 12.5063 0.488159C13.0981 0.488159 13.5778 0.967857 13.5778 1.5599V4.29923C13.5778 4.89127 13.0981 5.37097 12.5063 5.37097Z" fill="#E1E3E9"/>
<path d="M13.0693 11.8743L14.0203 13.8013L16.1469 14.1102C16.6656 14.1856 16.873 14.8232 16.4974 15.1892L14.9588 16.6892L15.3219 18.8071C15.4106 19.3238 14.8682 19.7178 14.4041 19.4739L12.5023 18.4739L10.6003 19.4739C10.1362 19.7178 9.59377 19.3238 9.68246 18.8071L10.0456 16.6892L8.50696 15.1892C8.13141 14.8232 8.33874 14.1856 8.85754 14.1102L10.984 13.8013L11.935 11.8743C12.167 11.4041 12.8374 11.4041 13.0693 11.8743Z" fill="#FFCB7C"/>
<path d="M22.9492 2.53894H22.3633V1.5599C22.3633 0.699684 21.6635 -0.00012207 20.8033 -0.00012207C19.9432 -0.00012207 19.2434 0.699684 19.2434 1.5599V2.53894H14.0661V1.5599C14.0661 0.699684 13.3663 -0.00012207 12.5063 -0.00012207C11.6461 -0.00012207 10.9463 0.699684 10.9463 1.5599V2.53894H5.75657V1.5599C5.75657 0.699684 5.05676 -0.00012207 4.19674 -0.00012207C3.33652 -0.00012207 2.63672 0.699684 2.63672 1.5599V2.53894H2.05078C0.919914 2.53894 0 3.45885 0 4.58972V22.9491C0 24.08 0.919914 24.9999 2.05078 24.9999H22.9492C24.0801 24.9999 25 24.08 25 22.9491V4.58972C25 3.45885 24.0801 2.53894 22.9492 2.53894ZM20.22 1.5599C20.22 1.23813 20.4817 0.97644 20.8033 0.97644C21.125 0.97644 21.3867 1.23813 21.3867 1.5599V4.29923C21.3867 4.621 21.125 4.88269 20.8033 4.88269C20.4817 4.88269 20.22 4.621 20.22 4.29923V1.5599ZM11.9228 1.5599C11.9228 1.23813 12.1845 0.97644 12.5063 0.97644C12.8279 0.97644 13.0896 1.23813 13.0896 1.5599V4.29923C13.0896 4.621 12.8279 4.88269 12.5063 4.88269C12.1845 4.88269 11.9228 4.621 11.9228 4.29923V1.5599ZM3.61328 1.5599C3.61328 1.23813 3.87497 0.97644 4.19674 0.97644C4.51832 0.97644 4.78001 1.23813 4.78001 1.5599V4.29923C4.78001 4.621 4.51832 4.88269 4.19674 4.88269C3.87497 4.88269 3.61328 4.621 3.61328 4.29923V1.5599ZM2.05078 3.5155H2.63672V4.29923C2.63672 5.15945 3.33652 5.85925 4.19674 5.85925C5.05676 5.85925 5.75657 5.15945 5.75657 4.29923V3.5155H10.9463V4.29923C10.9463 5.15945 11.6461 5.85925 12.5063 5.85925C13.3663 5.85925 14.0661 5.15945 14.0661 4.29923V3.5155H19.2434V4.29923C19.2434 5.15945 19.943 5.85925 20.8033 5.85925C21.6635 5.85925 22.3633 5.15945 22.3633 4.29923V3.5155H22.9492C23.5416 3.5155 24.0234 3.9973 24.0234 4.58972V8.39832H14.6973C14.4276 8.39832 14.209 8.6169 14.209 8.8866C14.209 9.1563 14.4276 9.37488 14.6973 9.37488H24.0234V20.996C24.0234 21.5884 23.5416 22.0702 22.9492 22.0702H2.05078C1.45836 22.0702 0.976562 21.5884 0.976562 20.996V9.37488H10.3027C10.5724 9.37488 10.791 9.1563 10.791 8.8866C10.791 8.6169 10.5724 8.39832 10.3027 8.39832H0.976562V4.58972C0.976562 3.9973 1.45836 3.5155 2.05078 3.5155ZM22.9492 24.0233H2.05078C1.45836 24.0233 0.976562 23.5415 0.976562 22.9491V22.742C1.28918 22.935 1.6571 23.0468 2.05078 23.0468H22.9492C23.3429 23.0468 23.7108 22.935 24.0234 22.742V22.9491C24.0234 23.5415 23.5416 24.0233 22.9492 24.0233Z" fill="black"/>
<path d="M12.5 9.37488C12.6284 9.37488 12.7544 9.32262 12.8452 9.23183C12.936 9.14104 12.9883 9.01496 12.9883 8.8866C12.9883 8.75823 12.936 8.63216 12.8452 8.54137C12.7544 8.45058 12.6284 8.39832 12.5 8.39832C12.3716 8.39832 12.2456 8.45058 12.1548 8.54137C12.064 8.63216 12.0117 8.75823 12.0117 8.8866C12.0117 9.01496 12.064 9.14104 12.1548 9.23183C12.2456 9.32262 12.3716 9.37488 12.5 9.37488Z" fill="black"/>
<path d="M8.78735 13.6269C8.36201 13.6887 8.01525 13.9811 7.8825 14.3899C7.74975 14.7986 7.85828 15.2388 8.16612 15.5389L9.5211 16.8595L9.20124 18.7243C9.12857 19.1479 9.29928 19.5679 9.64699 19.8207C9.9947 20.0732 10.4471 20.106 10.8274 19.9059L12.5023 19.0255L14.1769 19.9059C14.3425 19.9929 14.5214 20.036 14.6996 20.036C14.9311 20.036 15.1609 19.9633 15.3574 19.8207C15.7051 19.5679 15.876 19.1479 15.8033 18.7243L15.4835 16.8595L16.8385 15.5389C17.1461 15.2388 17.2548 14.7986 17.1221 14.3899C16.9891 13.9811 16.6426 13.6887 16.2172 13.6269L14.3448 13.3549L13.5075 11.6582C13.3171 11.2729 12.932 11.0335 12.5023 11.0335C12.0726 11.0335 11.6875 11.2729 11.4973 11.6582L10.6598 13.3549L8.78735 13.6269ZM11.4218 14.0174L12.3728 12.0904C12.4056 12.024 12.4613 12.0101 12.5023 12.0101C12.5431 12.0101 12.5988 12.024 12.6316 12.0904L13.5826 14.0174C13.6538 14.1614 13.7911 14.2613 13.9502 14.2846L16.0767 14.5936C16.1501 14.6041 16.1804 14.6527 16.1932 14.6916C16.2058 14.7305 16.2098 14.7879 16.1568 14.8396L14.6179 16.3396C14.5029 16.4517 14.4503 16.6133 14.4775 16.7718L14.8407 18.8895C14.8533 18.9625 14.8165 19.0066 14.7835 19.0306C14.7503 19.0549 14.6971 19.0762 14.6315 19.0417L12.7295 18.0417C12.6583 18.0043 12.5803 17.9858 12.5023 17.9858C12.4241 17.9858 12.3461 18.0045 12.2751 18.0417L10.3731 19.0417C10.3075 19.0762 10.2543 19.0547 10.2211 19.0306C10.1879 19.0066 10.1511 18.9627 10.1637 18.8895L10.5268 16.7718C10.5541 16.6133 10.5015 16.4517 10.3865 16.3396L8.84781 14.8396C8.79459 14.7877 8.7986 14.7305 8.81119 14.6916C8.82397 14.6527 8.85429 14.6041 8.92773 14.5936L11.0542 14.2846C11.2131 14.2613 11.3506 14.1614 11.4218 14.0174Z" fill="black"/>
</g>
<defs>
<clipPath id="clip0_6148_8439">
<rect width="25" height="25" fill="white"/>
</clipPath>
</defs>
</svg>
